<mxfile host="app.diagrams.net" modified="2023-09-08T14:41:38.300Z" agent="Mozilla/5.0 (Macintosh; Intel Mac OS X 10_15_7) AppleWebKit/537.36 (KHTML, like Gecko) Chrome/116.0.0.0 Safari/537.36" etag="aU1Ilmz4OuBCN5nVAyQ4" version="21.7.2" type="device">
  <diagram name="Page-1" id="wqdkFg036trEDnxu9Tmw">
    <mxGraphModel dx="1434" dy="832" grid="1" gridSize="5" guides="1" tooltips="1" connect="1" arrows="1" fold="1" page="1" pageScale="1" pageWidth="850" pageHeight="1100" math="0" shadow="0">
      <root>
        <mxCell id="0" />
        <mxCell id="1" parent="0" />
        <mxCell id="gtYnEdTjVLz-L2qjGS6A-710" value="" style="rounded=1;whiteSpace=wrap;html=1;dashed=1;fillColor=none;fillStyle=dashed;strokeColor=#FF0000;strokeWidth=2;opacity=75;" vertex="1" parent="1">
          <mxGeometry x="200" y="180" width="200" height="120" as="geometry" />
        </mxCell>
        <mxCell id="gtYnEdTjVLz-L2qjGS6A-780" value="" style="rounded=1;whiteSpace=wrap;html=1;dashed=1;fillColor=none;fillStyle=dashed;strokeColor=#00AB00;strokeWidth=2;opacity=75;" vertex="1" parent="1">
          <mxGeometry x="440" y="180" width="200" height="120" as="geometry" />
        </mxCell>
        <mxCell id="gtYnEdTjVLz-L2qjGS6A-1" value="" style="triangle;whiteSpace=wrap;html=1;" vertex="1" parent="1">
          <mxGeometry x="220" y="200" width="60" height="80" as="geometry" />
        </mxCell>
        <mxCell id="gtYnEdTjVLz-L2qjGS6A-4" value="" style="triangle;whiteSpace=wrap;html=1;rotation=-180;" vertex="1" parent="1">
          <mxGeometry x="320" y="200" width="60" height="80" as="geometry" />
        </mxCell>
        <mxCell id="gtYnEdTjVLz-L2qjGS6A-11" value="" style="endArrow=none;html=1;rounded=0;exitX=0;exitY=0.75;exitDx=0;exitDy=0;" edge="1" parent="1" source="gtYnEdTjVLz-L2qjGS6A-4">
          <mxGeometry width="50" height="50" relative="1" as="geometry">
            <mxPoint x="460" y="490" as="sourcePoint" />
            <mxPoint x="420" y="220" as="targetPoint" />
          </mxGeometry>
        </mxCell>
        <mxCell id="gtYnEdTjVLz-L2qjGS6A-12" value="" style="endArrow=none;html=1;rounded=0;exitX=0;exitY=0.25;exitDx=0;exitDy=0;" edge="1" parent="1" source="gtYnEdTjVLz-L2qjGS6A-4">
          <mxGeometry width="50" height="50" relative="1" as="geometry">
            <mxPoint x="390" y="230" as="sourcePoint" />
            <mxPoint x="420" y="260" as="targetPoint" />
          </mxGeometry>
        </mxCell>
        <mxCell id="gtYnEdTjVLz-L2qjGS6A-13" value="" style="endArrow=none;html=1;rounded=0;exitX=0;exitY=0.25;exitDx=0;exitDy=0;strokeColor=default;" edge="1" parent="1" source="gtYnEdTjVLz-L2qjGS6A-1">
          <mxGeometry width="50" height="50" relative="1" as="geometry">
            <mxPoint x="430" y="270" as="sourcePoint" />
            <mxPoint x="160" y="200" as="targetPoint" />
          </mxGeometry>
        </mxCell>
        <mxCell id="gtYnEdTjVLz-L2qjGS6A-14" value="" style="endArrow=none;html=1;rounded=0;exitX=0;exitY=0.75;exitDx=0;exitDy=0;entryX=1;entryY=0.5;entryDx=0;entryDy=0;" edge="1" parent="1" source="gtYnEdTjVLz-L2qjGS6A-1" target="gtYnEdTjVLz-L2qjGS6A-312">
          <mxGeometry width="50" height="50" relative="1" as="geometry">
            <mxPoint x="220" y="254.58" as="sourcePoint" />
            <mxPoint x="160" y="280" as="targetPoint" />
          </mxGeometry>
        </mxCell>
        <mxCell id="gtYnEdTjVLz-L2qjGS6A-294" value="" style="triangle;whiteSpace=wrap;html=1;" vertex="1" parent="1">
          <mxGeometry x="460" y="200" width="60" height="80" as="geometry" />
        </mxCell>
        <mxCell id="gtYnEdTjVLz-L2qjGS6A-295" value="" style="endArrow=none;html=1;rounded=0;exitX=1;exitY=0.5;exitDx=0;exitDy=0;" edge="1" parent="1" source="gtYnEdTjVLz-L2qjGS6A-294">
          <mxGeometry width="50" height="50" relative="1" as="geometry">
            <mxPoint x="740" y="490" as="sourcePoint" />
            <mxPoint x="560" y="240" as="targetPoint" />
          </mxGeometry>
        </mxCell>
        <mxCell id="gtYnEdTjVLz-L2qjGS6A-296" value="" style="triangle;whiteSpace=wrap;html=1;rotation=-180;" vertex="1" parent="1">
          <mxGeometry x="560" y="200" width="60" height="80" as="geometry" />
        </mxCell>
        <mxCell id="gtYnEdTjVLz-L2qjGS6A-297" value="" style="endArrow=none;html=1;rounded=0;exitX=0;exitY=0.75;exitDx=0;exitDy=0;entryX=1;entryY=0.5;entryDx=0;entryDy=0;" edge="1" parent="1" source="gtYnEdTjVLz-L2qjGS6A-296" target="gtYnEdTjVLz-L2qjGS6A-319">
          <mxGeometry width="50" height="50" relative="1" as="geometry">
            <mxPoint x="700" y="490" as="sourcePoint" />
            <mxPoint x="660" y="220" as="targetPoint" />
          </mxGeometry>
        </mxCell>
        <mxCell id="gtYnEdTjVLz-L2qjGS6A-298" value="" style="endArrow=none;html=1;rounded=0;exitX=0;exitY=0.25;exitDx=0;exitDy=0;entryX=1;entryY=0.5;entryDx=0;entryDy=0;" edge="1" parent="1" source="gtYnEdTjVLz-L2qjGS6A-296" target="gtYnEdTjVLz-L2qjGS6A-1348">
          <mxGeometry width="50" height="50" relative="1" as="geometry">
            <mxPoint x="630" y="230" as="sourcePoint" />
            <mxPoint x="677.6000000000001" y="298.8800000000001" as="targetPoint" />
          </mxGeometry>
        </mxCell>
        <mxCell id="gtYnEdTjVLz-L2qjGS6A-299" value="" style="endArrow=none;html=1;rounded=0;exitX=0;exitY=0.25;exitDx=0;exitDy=0;" edge="1" parent="1" source="gtYnEdTjVLz-L2qjGS6A-294">
          <mxGeometry width="50" height="50" relative="1" as="geometry">
            <mxPoint x="670" y="270" as="sourcePoint" />
            <mxPoint x="420" y="220" as="targetPoint" />
          </mxGeometry>
        </mxCell>
        <mxCell id="gtYnEdTjVLz-L2qjGS6A-300" value="" style="endArrow=none;html=1;rounded=0;exitX=0;exitY=0.75;exitDx=0;exitDy=0;" edge="1" parent="1" source="gtYnEdTjVLz-L2qjGS6A-294">
          <mxGeometry width="50" height="50" relative="1" as="geometry">
            <mxPoint x="460" y="254.58" as="sourcePoint" />
            <mxPoint x="420" y="260" as="targetPoint" />
          </mxGeometry>
        </mxCell>
        <mxCell id="gtYnEdTjVLz-L2qjGS6A-308" value="" style="triangle;whiteSpace=wrap;html=1;rotation=-180;" vertex="1" parent="1">
          <mxGeometry x="100" y="140" width="60" height="80" as="geometry" />
        </mxCell>
        <mxCell id="gtYnEdTjVLz-L2qjGS6A-311" value="" style="endArrow=none;html=1;rounded=0;exitX=1;exitY=0.5;exitDx=0;exitDy=0;" edge="1" parent="1" source="gtYnEdTjVLz-L2qjGS6A-308">
          <mxGeometry width="50" height="50" relative="1" as="geometry">
            <mxPoint x="790" y="230" as="sourcePoint" />
            <mxPoint x="60" y="180" as="targetPoint" />
          </mxGeometry>
        </mxCell>
        <mxCell id="gtYnEdTjVLz-L2qjGS6A-312" value="" style="triangle;whiteSpace=wrap;html=1;" vertex="1" parent="1">
          <mxGeometry x="100" y="260" width="60" height="80" as="geometry" />
        </mxCell>
        <mxCell id="gtYnEdTjVLz-L2qjGS6A-313" value="" style="endArrow=none;html=1;rounded=0;exitX=1;exitY=0.5;exitDx=0;exitDy=0;" edge="1" parent="1">
          <mxGeometry width="50" height="50" relative="1" as="geometry">
            <mxPoint x="100" y="280" as="sourcePoint" />
            <mxPoint x="60" y="280" as="targetPoint" />
          </mxGeometry>
        </mxCell>
        <mxCell id="gtYnEdTjVLz-L2qjGS6A-314" value="" style="endArrow=none;html=1;rounded=0;exitX=1;exitY=0.5;exitDx=0;exitDy=0;" edge="1" parent="1">
          <mxGeometry width="50" height="50" relative="1" as="geometry">
            <mxPoint x="100" y="320" as="sourcePoint" />
            <mxPoint x="60" y="320" as="targetPoint" />
          </mxGeometry>
        </mxCell>
        <mxCell id="gtYnEdTjVLz-L2qjGS6A-319" value="" style="triangle;whiteSpace=wrap;html=1;rotation=-180;" vertex="1" parent="1">
          <mxGeometry x="680" y="140" width="60" height="80" as="geometry" />
        </mxCell>
        <mxCell id="gtYnEdTjVLz-L2qjGS6A-320" value="" style="endArrow=none;html=1;rounded=0;exitX=0;exitY=0.75;exitDx=0;exitDy=0;" edge="1" parent="1" source="gtYnEdTjVLz-L2qjGS6A-319">
          <mxGeometry width="50" height="50" relative="1" as="geometry">
            <mxPoint x="820" y="440" as="sourcePoint" />
            <mxPoint x="780" y="160" as="targetPoint" />
          </mxGeometry>
        </mxCell>
        <mxCell id="gtYnEdTjVLz-L2qjGS6A-321" value="" style="endArrow=none;html=1;rounded=0;exitX=0;exitY=0.25;exitDx=0;exitDy=0;" edge="1" parent="1" source="gtYnEdTjVLz-L2qjGS6A-319">
          <mxGeometry width="50" height="50" relative="1" as="geometry">
            <mxPoint x="750" y="180" as="sourcePoint" />
            <mxPoint x="780" y="200" as="targetPoint" />
          </mxGeometry>
        </mxCell>
        <mxCell id="gtYnEdTjVLz-L2qjGS6A-326" value="" style="endArrow=none;html=1;rounded=0;exitX=0;exitY=0.25;exitDx=0;exitDy=0;" edge="1" parent="1">
          <mxGeometry width="50" height="50" relative="1" as="geometry">
            <mxPoint x="160" y="160" as="sourcePoint" />
            <mxPoint x="200" y="140" as="targetPoint" />
          </mxGeometry>
        </mxCell>
        <mxCell id="gtYnEdTjVLz-L2qjGS6A-334" value="&lt;font style=&quot;font-size: 20px;&quot;&gt;A&lt;/font&gt;" style="text;html=1;strokeColor=none;fillColor=none;align=center;verticalAlign=middle;whiteSpace=wrap;rounded=0;" vertex="1" parent="1">
          <mxGeometry x="230" y="230" width="20" height="20" as="geometry" />
        </mxCell>
        <mxCell id="gtYnEdTjVLz-L2qjGS6A-335" value="&lt;font style=&quot;font-size: 20px;&quot;&gt;B&lt;/font&gt;" style="text;html=1;strokeColor=none;fillColor=none;align=center;verticalAlign=middle;whiteSpace=wrap;rounded=0;" vertex="1" parent="1">
          <mxGeometry x="350" y="230" width="20" height="20" as="geometry" />
        </mxCell>
        <mxCell id="gtYnEdTjVLz-L2qjGS6A-336" value="&lt;font style=&quot;font-size: 20px;&quot;&gt;C&lt;/font&gt;" style="text;html=1;strokeColor=none;fillColor=none;align=center;verticalAlign=middle;whiteSpace=wrap;rounded=0;" vertex="1" parent="1">
          <mxGeometry x="470" y="230" width="20" height="20" as="geometry" />
        </mxCell>
        <mxCell id="gtYnEdTjVLz-L2qjGS6A-337" value="&lt;font style=&quot;font-size: 20px;&quot;&gt;D&lt;/font&gt;" style="text;html=1;strokeColor=none;fillColor=none;align=center;verticalAlign=middle;whiteSpace=wrap;rounded=0;" vertex="1" parent="1">
          <mxGeometry x="590" y="230" width="20" height="20" as="geometry" />
        </mxCell>
        <mxCell id="gtYnEdTjVLz-L2qjGS6A-338" value="&lt;font style=&quot;font-size: 20px;&quot;&gt;X&lt;/font&gt;" style="text;html=1;strokeColor=none;fillColor=none;align=center;verticalAlign=middle;whiteSpace=wrap;rounded=0;" vertex="1" parent="1">
          <mxGeometry x="125" y="170" width="20" height="20" as="geometry" />
        </mxCell>
        <mxCell id="gtYnEdTjVLz-L2qjGS6A-339" value="&lt;font style=&quot;font-size: 20px;&quot;&gt;Y&lt;/font&gt;" style="text;html=1;strokeColor=none;fillColor=none;align=center;verticalAlign=middle;whiteSpace=wrap;rounded=0;" vertex="1" parent="1">
          <mxGeometry x="115" y="290" width="20" height="20" as="geometry" />
        </mxCell>
        <mxCell id="gtYnEdTjVLz-L2qjGS6A-340" value="&lt;font style=&quot;font-size: 20px;&quot;&gt;Z&lt;/font&gt;" style="text;html=1;strokeColor=none;fillColor=none;align=center;verticalAlign=middle;whiteSpace=wrap;rounded=0;" vertex="1" parent="1">
          <mxGeometry x="705" y="170" width="20" height="20" as="geometry" />
        </mxCell>
        <mxCell id="gtYnEdTjVLz-L2qjGS6A-370" value="" style="endArrow=none;html=1;rounded=0;" edge="1" parent="1">
          <mxGeometry width="50" height="50" relative="1" as="geometry">
            <mxPoint x="60" y="290" as="sourcePoint" />
            <mxPoint x="60" y="270" as="targetPoint" />
          </mxGeometry>
        </mxCell>
        <mxCell id="gtYnEdTjVLz-L2qjGS6A-371" value="" style="endArrow=none;html=1;rounded=0;" edge="1" parent="1">
          <mxGeometry width="50" height="50" relative="1" as="geometry">
            <mxPoint x="60" y="330" as="sourcePoint" />
            <mxPoint x="60" y="310" as="targetPoint" />
          </mxGeometry>
        </mxCell>
        <mxCell id="gtYnEdTjVLz-L2qjGS6A-373" value="" style="endArrow=none;html=1;rounded=0;" edge="1" parent="1">
          <mxGeometry width="50" height="50" relative="1" as="geometry">
            <mxPoint x="780" y="170" as="sourcePoint" />
            <mxPoint x="780" y="150" as="targetPoint" />
          </mxGeometry>
        </mxCell>
        <mxCell id="gtYnEdTjVLz-L2qjGS6A-375" value="" style="endArrow=none;html=1;rounded=0;" edge="1" parent="1">
          <mxGeometry width="50" height="50" relative="1" as="geometry">
            <mxPoint x="780" y="210" as="sourcePoint" />
            <mxPoint x="780" y="190" as="targetPoint" />
          </mxGeometry>
        </mxCell>
        <mxCell id="gtYnEdTjVLz-L2qjGS6A-429" value="0" style="text;html=1;strokeColor=none;fillColor=none;align=center;verticalAlign=middle;whiteSpace=wrap;rounded=0;" vertex="1" parent="1">
          <mxGeometry x="265" y="235" width="10" height="10" as="geometry" />
        </mxCell>
        <mxCell id="gtYnEdTjVLz-L2qjGS6A-430" value="1&lt;br&gt;" style="text;html=1;strokeColor=none;fillColor=none;align=center;verticalAlign=middle;whiteSpace=wrap;rounded=0;" vertex="1" parent="1">
          <mxGeometry x="220" y="215" width="10" height="10" as="geometry" />
        </mxCell>
        <mxCell id="gtYnEdTjVLz-L2qjGS6A-431" value="1&lt;br&gt;" style="text;html=1;strokeColor=none;fillColor=none;align=center;verticalAlign=middle;whiteSpace=wrap;rounded=0;" vertex="1" parent="1">
          <mxGeometry x="150" y="195" width="10" height="10" as="geometry" />
        </mxCell>
        <mxCell id="gtYnEdTjVLz-L2qjGS6A-432" value="1&lt;br&gt;" style="text;html=1;strokeColor=none;fillColor=none;align=center;verticalAlign=middle;whiteSpace=wrap;rounded=0;" vertex="1" parent="1">
          <mxGeometry x="100" y="275" width="10" height="10" as="geometry" />
        </mxCell>
        <mxCell id="gtYnEdTjVLz-L2qjGS6A-433" value="1&lt;br&gt;" style="text;html=1;strokeColor=none;fillColor=none;align=center;verticalAlign=middle;whiteSpace=wrap;rounded=0;" vertex="1" parent="1">
          <mxGeometry x="370" y="255" width="10" height="10" as="geometry" />
        </mxCell>
        <mxCell id="gtYnEdTjVLz-L2qjGS6A-434" value="1&lt;br&gt;" style="text;html=1;strokeColor=none;fillColor=none;align=center;verticalAlign=middle;whiteSpace=wrap;rounded=0;" vertex="1" parent="1">
          <mxGeometry x="460" y="215" width="10" height="10" as="geometry" />
        </mxCell>
        <mxCell id="gtYnEdTjVLz-L2qjGS6A-435" value="1&lt;br&gt;" style="text;html=1;strokeColor=none;fillColor=none;align=center;verticalAlign=middle;whiteSpace=wrap;rounded=0;" vertex="1" parent="1">
          <mxGeometry x="610" y="255" width="10" height="10" as="geometry" />
        </mxCell>
        <mxCell id="gtYnEdTjVLz-L2qjGS6A-436" value="1&lt;br&gt;" style="text;html=1;strokeColor=none;fillColor=none;align=center;verticalAlign=middle;whiteSpace=wrap;rounded=0;" vertex="1" parent="1">
          <mxGeometry x="730" y="195" width="10" height="10" as="geometry" />
        </mxCell>
        <mxCell id="gtYnEdTjVLz-L2qjGS6A-438" value="0" style="text;html=1;strokeColor=none;fillColor=none;align=center;verticalAlign=middle;whiteSpace=wrap;rounded=0;" vertex="1" parent="1">
          <mxGeometry x="105" y="175" width="10" height="10" as="geometry" />
        </mxCell>
        <mxCell id="gtYnEdTjVLz-L2qjGS6A-439" value="0" style="text;html=1;strokeColor=none;fillColor=none;align=center;verticalAlign=middle;whiteSpace=wrap;rounded=0;" vertex="1" parent="1">
          <mxGeometry x="145" y="295" width="10" height="10" as="geometry" />
        </mxCell>
        <mxCell id="gtYnEdTjVLz-L2qjGS6A-440" value="0" style="text;html=1;strokeColor=none;fillColor=none;align=center;verticalAlign=middle;whiteSpace=wrap;rounded=0;" vertex="1" parent="1">
          <mxGeometry x="325" y="235" width="10" height="10" as="geometry" />
        </mxCell>
        <mxCell id="gtYnEdTjVLz-L2qjGS6A-441" value="0" style="text;html=1;strokeColor=none;fillColor=none;align=center;verticalAlign=middle;whiteSpace=wrap;rounded=0;" vertex="1" parent="1">
          <mxGeometry x="505" y="235" width="10" height="10" as="geometry" />
        </mxCell>
        <mxCell id="gtYnEdTjVLz-L2qjGS6A-442" value="0" style="text;html=1;strokeColor=none;fillColor=none;align=center;verticalAlign=middle;whiteSpace=wrap;rounded=0;" vertex="1" parent="1">
          <mxGeometry x="565" y="235" width="10" height="10" as="geometry" />
        </mxCell>
        <mxCell id="gtYnEdTjVLz-L2qjGS6A-443" value="0" style="text;html=1;strokeColor=none;fillColor=none;align=center;verticalAlign=middle;whiteSpace=wrap;rounded=0;" vertex="1" parent="1">
          <mxGeometry x="685" y="175" width="10" height="10" as="geometry" />
        </mxCell>
        <mxCell id="gtYnEdTjVLz-L2qjGS6A-445" value="2" style="text;html=1;strokeColor=none;fillColor=none;align=center;verticalAlign=middle;whiteSpace=wrap;rounded=0;" vertex="1" parent="1">
          <mxGeometry x="730" y="155" width="10" height="10" as="geometry" />
        </mxCell>
        <mxCell id="gtYnEdTjVLz-L2qjGS6A-447" value="2" style="text;html=1;strokeColor=none;fillColor=none;align=center;verticalAlign=middle;whiteSpace=wrap;rounded=0;" vertex="1" parent="1">
          <mxGeometry x="610" y="215" width="10" height="10" as="geometry" />
        </mxCell>
        <mxCell id="gtYnEdTjVLz-L2qjGS6A-448" value="2" style="text;html=1;strokeColor=none;fillColor=none;align=center;verticalAlign=middle;whiteSpace=wrap;rounded=0;" vertex="1" parent="1">
          <mxGeometry x="460" y="255" width="10" height="10" as="geometry" />
        </mxCell>
        <mxCell id="gtYnEdTjVLz-L2qjGS6A-449" value="2" style="text;html=1;strokeColor=none;fillColor=none;align=center;verticalAlign=middle;whiteSpace=wrap;rounded=0;" vertex="1" parent="1">
          <mxGeometry x="370" y="215" width="10" height="10" as="geometry" />
        </mxCell>
        <mxCell id="gtYnEdTjVLz-L2qjGS6A-450" value="2" style="text;html=1;strokeColor=none;fillColor=none;align=center;verticalAlign=middle;whiteSpace=wrap;rounded=0;" vertex="1" parent="1">
          <mxGeometry x="220" y="255" width="10" height="10" as="geometry" />
        </mxCell>
        <mxCell id="gtYnEdTjVLz-L2qjGS6A-451" value="2" style="text;html=1;strokeColor=none;fillColor=none;align=center;verticalAlign=middle;whiteSpace=wrap;rounded=0;" vertex="1" parent="1">
          <mxGeometry x="100" y="315" width="10" height="10" as="geometry" />
        </mxCell>
        <mxCell id="gtYnEdTjVLz-L2qjGS6A-452" value="2" style="text;html=1;strokeColor=none;fillColor=none;align=center;verticalAlign=middle;whiteSpace=wrap;rounded=0;" vertex="1" parent="1">
          <mxGeometry x="150" y="155" width="10" height="10" as="geometry" />
        </mxCell>
        <mxCell id="gtYnEdTjVLz-L2qjGS6A-964" value="" style="endArrow=none;html=1;rounded=0;" edge="1" parent="1">
          <mxGeometry width="50" height="50" relative="1" as="geometry">
            <mxPoint x="200" y="150" as="sourcePoint" />
            <mxPoint x="200" y="130" as="targetPoint" />
          </mxGeometry>
        </mxCell>
        <mxCell id="gtYnEdTjVLz-L2qjGS6A-975" value="" style="endArrow=none;html=1;rounded=0;exitX=0;exitY=0.25;exitDx=0;exitDy=0;" edge="1" parent="1">
          <mxGeometry width="50" height="50" relative="1" as="geometry">
            <mxPoint x="220" y="520" as="sourcePoint" />
            <mxPoint x="160" y="500" as="targetPoint" />
          </mxGeometry>
        </mxCell>
        <mxCell id="gtYnEdTjVLz-L2qjGS6A-976" value="" style="endArrow=none;html=1;rounded=0;exitX=0;exitY=0.75;exitDx=0;exitDy=0;entryX=1;entryY=0.5;entryDx=0;entryDy=0;" edge="1" parent="1" target="gtYnEdTjVLz-L2qjGS6A-986">
          <mxGeometry width="50" height="50" relative="1" as="geometry">
            <mxPoint x="220" y="560" as="sourcePoint" />
            <mxPoint x="160" y="580" as="targetPoint" />
          </mxGeometry>
        </mxCell>
        <mxCell id="gtYnEdTjVLz-L2qjGS6A-980" value="" style="endArrow=none;html=1;rounded=0;exitX=0;exitY=0.75;exitDx=0;exitDy=0;entryX=1;entryY=0.5;entryDx=0;entryDy=0;" edge="1" parent="1" target="gtYnEdTjVLz-L2qjGS6A-989">
          <mxGeometry width="50" height="50" relative="1" as="geometry">
            <mxPoint x="620" y="520" as="sourcePoint" />
            <mxPoint x="660" y="520" as="targetPoint" />
          </mxGeometry>
        </mxCell>
        <mxCell id="gtYnEdTjVLz-L2qjGS6A-981" value="" style="endArrow=none;html=1;rounded=0;exitX=0;exitY=0.25;exitDx=0;exitDy=0;" edge="1" parent="1">
          <mxGeometry width="50" height="50" relative="1" as="geometry">
            <mxPoint x="620" y="560" as="sourcePoint" />
            <mxPoint x="680" y="600" as="targetPoint" />
          </mxGeometry>
        </mxCell>
        <mxCell id="gtYnEdTjVLz-L2qjGS6A-984" value="" style="triangle;whiteSpace=wrap;html=1;rotation=-180;" vertex="1" parent="1">
          <mxGeometry x="100" y="440" width="60" height="80" as="geometry" />
        </mxCell>
        <mxCell id="gtYnEdTjVLz-L2qjGS6A-985" value="" style="endArrow=none;html=1;rounded=0;exitX=1;exitY=0.5;exitDx=0;exitDy=0;" edge="1" parent="1" source="gtYnEdTjVLz-L2qjGS6A-984">
          <mxGeometry width="50" height="50" relative="1" as="geometry">
            <mxPoint x="790" y="530" as="sourcePoint" />
            <mxPoint x="60" y="480" as="targetPoint" />
          </mxGeometry>
        </mxCell>
        <mxCell id="gtYnEdTjVLz-L2qjGS6A-986" value="" style="triangle;whiteSpace=wrap;html=1;" vertex="1" parent="1">
          <mxGeometry x="100" y="560" width="60" height="80" as="geometry" />
        </mxCell>
        <mxCell id="gtYnEdTjVLz-L2qjGS6A-987" value="" style="endArrow=none;html=1;rounded=0;exitX=1;exitY=0.5;exitDx=0;exitDy=0;" edge="1" parent="1">
          <mxGeometry width="50" height="50" relative="1" as="geometry">
            <mxPoint x="100" y="580" as="sourcePoint" />
            <mxPoint x="60" y="580" as="targetPoint" />
          </mxGeometry>
        </mxCell>
        <mxCell id="gtYnEdTjVLz-L2qjGS6A-988" value="" style="endArrow=none;html=1;rounded=0;exitX=1;exitY=0.5;exitDx=0;exitDy=0;" edge="1" parent="1">
          <mxGeometry width="50" height="50" relative="1" as="geometry">
            <mxPoint x="100" y="620" as="sourcePoint" />
            <mxPoint x="60" y="620" as="targetPoint" />
          </mxGeometry>
        </mxCell>
        <mxCell id="gtYnEdTjVLz-L2qjGS6A-989" value="" style="triangle;whiteSpace=wrap;html=1;rotation=-180;" vertex="1" parent="1">
          <mxGeometry x="680" y="440" width="60" height="80" as="geometry" />
        </mxCell>
        <mxCell id="gtYnEdTjVLz-L2qjGS6A-990" value="" style="endArrow=none;html=1;rounded=0;exitX=0;exitY=0.75;exitDx=0;exitDy=0;" edge="1" parent="1" source="gtYnEdTjVLz-L2qjGS6A-989">
          <mxGeometry width="50" height="50" relative="1" as="geometry">
            <mxPoint x="820" y="740" as="sourcePoint" />
            <mxPoint x="780" y="460" as="targetPoint" />
          </mxGeometry>
        </mxCell>
        <mxCell id="gtYnEdTjVLz-L2qjGS6A-991" value="" style="endArrow=none;html=1;rounded=0;exitX=0;exitY=0.25;exitDx=0;exitDy=0;" edge="1" parent="1" source="gtYnEdTjVLz-L2qjGS6A-989">
          <mxGeometry width="50" height="50" relative="1" as="geometry">
            <mxPoint x="750" y="480" as="sourcePoint" />
            <mxPoint x="780" y="500" as="targetPoint" />
          </mxGeometry>
        </mxCell>
        <mxCell id="gtYnEdTjVLz-L2qjGS6A-994" value="" style="endArrow=none;html=1;rounded=0;exitX=0;exitY=0.25;exitDx=0;exitDy=0;" edge="1" parent="1">
          <mxGeometry width="50" height="50" relative="1" as="geometry">
            <mxPoint x="160" y="460" as="sourcePoint" />
            <mxPoint x="200" y="440" as="targetPoint" />
          </mxGeometry>
        </mxCell>
        <mxCell id="gtYnEdTjVLz-L2qjGS6A-1000" value="&lt;font style=&quot;font-size: 20px;&quot;&gt;X&lt;/font&gt;" style="text;html=1;strokeColor=none;fillColor=none;align=center;verticalAlign=middle;whiteSpace=wrap;rounded=0;" vertex="1" parent="1">
          <mxGeometry x="125" y="470" width="20" height="20" as="geometry" />
        </mxCell>
        <mxCell id="gtYnEdTjVLz-L2qjGS6A-1001" value="&lt;font style=&quot;font-size: 20px;&quot;&gt;Y&lt;/font&gt;" style="text;html=1;strokeColor=none;fillColor=none;align=center;verticalAlign=middle;whiteSpace=wrap;rounded=0;" vertex="1" parent="1">
          <mxGeometry x="115" y="590" width="20" height="20" as="geometry" />
        </mxCell>
        <mxCell id="gtYnEdTjVLz-L2qjGS6A-1002" value="&lt;font style=&quot;font-size: 20px;&quot;&gt;Z&lt;/font&gt;" style="text;html=1;strokeColor=none;fillColor=none;align=center;verticalAlign=middle;whiteSpace=wrap;rounded=0;" vertex="1" parent="1">
          <mxGeometry x="705" y="470" width="20" height="20" as="geometry" />
        </mxCell>
        <mxCell id="gtYnEdTjVLz-L2qjGS6A-1004" value="" style="endArrow=none;html=1;rounded=0;" edge="1" parent="1">
          <mxGeometry width="50" height="50" relative="1" as="geometry">
            <mxPoint x="60" y="590" as="sourcePoint" />
            <mxPoint x="60" y="570" as="targetPoint" />
          </mxGeometry>
        </mxCell>
        <mxCell id="gtYnEdTjVLz-L2qjGS6A-1005" value="" style="endArrow=none;html=1;rounded=0;" edge="1" parent="1">
          <mxGeometry width="50" height="50" relative="1" as="geometry">
            <mxPoint x="60" y="630" as="sourcePoint" />
            <mxPoint x="60" y="610" as="targetPoint" />
          </mxGeometry>
        </mxCell>
        <mxCell id="gtYnEdTjVLz-L2qjGS6A-1006" value="" style="endArrow=none;html=1;rounded=0;" edge="1" parent="1">
          <mxGeometry width="50" height="50" relative="1" as="geometry">
            <mxPoint x="780" y="470" as="sourcePoint" />
            <mxPoint x="780" y="450" as="targetPoint" />
          </mxGeometry>
        </mxCell>
        <mxCell id="gtYnEdTjVLz-L2qjGS6A-1007" value="" style="endArrow=none;html=1;rounded=0;" edge="1" parent="1">
          <mxGeometry width="50" height="50" relative="1" as="geometry">
            <mxPoint x="780" y="510" as="sourcePoint" />
            <mxPoint x="780" y="490" as="targetPoint" />
          </mxGeometry>
        </mxCell>
        <mxCell id="gtYnEdTjVLz-L2qjGS6A-1011" value="1&lt;br&gt;" style="text;html=1;strokeColor=none;fillColor=none;align=center;verticalAlign=middle;whiteSpace=wrap;rounded=0;" vertex="1" parent="1">
          <mxGeometry x="150" y="495" width="10" height="10" as="geometry" />
        </mxCell>
        <mxCell id="gtYnEdTjVLz-L2qjGS6A-1012" value="1&lt;br&gt;" style="text;html=1;strokeColor=none;fillColor=none;align=center;verticalAlign=middle;whiteSpace=wrap;rounded=0;" vertex="1" parent="1">
          <mxGeometry x="100" y="575" width="10" height="10" as="geometry" />
        </mxCell>
        <mxCell id="gtYnEdTjVLz-L2qjGS6A-1016" value="1&lt;br&gt;" style="text;html=1;strokeColor=none;fillColor=none;align=center;verticalAlign=middle;whiteSpace=wrap;rounded=0;" vertex="1" parent="1">
          <mxGeometry x="730" y="495" width="10" height="10" as="geometry" />
        </mxCell>
        <mxCell id="gtYnEdTjVLz-L2qjGS6A-1018" value="0" style="text;html=1;strokeColor=none;fillColor=none;align=center;verticalAlign=middle;whiteSpace=wrap;rounded=0;" vertex="1" parent="1">
          <mxGeometry x="105" y="475" width="10" height="10" as="geometry" />
        </mxCell>
        <mxCell id="gtYnEdTjVLz-L2qjGS6A-1019" value="0" style="text;html=1;strokeColor=none;fillColor=none;align=center;verticalAlign=middle;whiteSpace=wrap;rounded=0;" vertex="1" parent="1">
          <mxGeometry x="145" y="595" width="10" height="10" as="geometry" />
        </mxCell>
        <mxCell id="gtYnEdTjVLz-L2qjGS6A-1023" value="0" style="text;html=1;strokeColor=none;fillColor=none;align=center;verticalAlign=middle;whiteSpace=wrap;rounded=0;" vertex="1" parent="1">
          <mxGeometry x="685" y="475" width="10" height="10" as="geometry" />
        </mxCell>
        <mxCell id="gtYnEdTjVLz-L2qjGS6A-1025" value="2" style="text;html=1;strokeColor=none;fillColor=none;align=center;verticalAlign=middle;whiteSpace=wrap;rounded=0;" vertex="1" parent="1">
          <mxGeometry x="730" y="455" width="10" height="10" as="geometry" />
        </mxCell>
        <mxCell id="gtYnEdTjVLz-L2qjGS6A-1031" value="2" style="text;html=1;strokeColor=none;fillColor=none;align=center;verticalAlign=middle;whiteSpace=wrap;rounded=0;" vertex="1" parent="1">
          <mxGeometry x="100" y="615" width="10" height="10" as="geometry" />
        </mxCell>
        <mxCell id="gtYnEdTjVLz-L2qjGS6A-1032" value="2" style="text;html=1;strokeColor=none;fillColor=none;align=center;verticalAlign=middle;whiteSpace=wrap;rounded=0;" vertex="1" parent="1">
          <mxGeometry x="150" y="455" width="10" height="10" as="geometry" />
        </mxCell>
        <mxCell id="gtYnEdTjVLz-L2qjGS6A-1033" value="" style="endArrow=none;html=1;rounded=0;" edge="1" parent="1">
          <mxGeometry width="50" height="50" relative="1" as="geometry">
            <mxPoint x="200" y="450" as="sourcePoint" />
            <mxPoint x="200" y="430" as="targetPoint" />
          </mxGeometry>
        </mxCell>
        <mxCell id="gtYnEdTjVLz-L2qjGS6A-1036" value="" style="rhombus;whiteSpace=wrap;html=1;fillColor=#7EA6E0;strokeColor=none;" vertex="1" parent="1">
          <mxGeometry x="220" y="550" width="20" height="20" as="geometry" />
        </mxCell>
        <mxCell id="gtYnEdTjVLz-L2qjGS6A-1039" value="" style="rhombus;whiteSpace=wrap;html=1;fillColor=#7EA6E0;strokeColor=none;" vertex="1" parent="1">
          <mxGeometry x="220" y="510" width="20" height="20" as="geometry" />
        </mxCell>
        <mxCell id="gtYnEdTjVLz-L2qjGS6A-1040" value="" style="rhombus;whiteSpace=wrap;html=1;fillColor=#7EA6E0;strokeColor=none;" vertex="1" parent="1">
          <mxGeometry x="360" y="510" width="20" height="20" as="geometry" />
        </mxCell>
        <mxCell id="gtYnEdTjVLz-L2qjGS6A-1041" value="" style="rhombus;whiteSpace=wrap;html=1;fillColor=#7EA6E0;strokeColor=none;" vertex="1" parent="1">
          <mxGeometry x="360" y="550" width="20" height="20" as="geometry" />
        </mxCell>
        <mxCell id="gtYnEdTjVLz-L2qjGS6A-1042" value="" style="rhombus;whiteSpace=wrap;html=1;fillColor=#7EA6E0;strokeColor=none;" vertex="1" parent="1">
          <mxGeometry x="460" y="550" width="20" height="20" as="geometry" />
        </mxCell>
        <mxCell id="gtYnEdTjVLz-L2qjGS6A-1043" value="" style="rhombus;whiteSpace=wrap;html=1;fillColor=#7EA6E0;strokeColor=none;" vertex="1" parent="1">
          <mxGeometry x="460" y="510" width="20" height="20" as="geometry" />
        </mxCell>
        <mxCell id="gtYnEdTjVLz-L2qjGS6A-1044" value="" style="rhombus;whiteSpace=wrap;html=1;fillColor=#7EA6E0;strokeColor=none;" vertex="1" parent="1">
          <mxGeometry x="600" y="510" width="20" height="20" as="geometry" />
        </mxCell>
        <mxCell id="gtYnEdTjVLz-L2qjGS6A-1045" value="" style="rhombus;whiteSpace=wrap;html=1;fillColor=#7EA6E0;strokeColor=none;" vertex="1" parent="1">
          <mxGeometry x="600" y="550" width="20" height="20" as="geometry" />
        </mxCell>
        <mxCell id="gtYnEdTjVLz-L2qjGS6A-1057" value="" style="endArrow=classic;html=1;strokeColor=#7EA6E0;entryX=0;entryY=0;entryDx=0;entryDy=0;curved=1;strokeWidth=2;" edge="1" parent="1" source="gtYnEdTjVLz-L2qjGS6A-1039" target="gtYnEdTjVLz-L2qjGS6A-1042">
          <mxGeometry width="50" height="50" relative="1" as="geometry">
            <mxPoint x="320" y="485" as="sourcePoint" />
            <mxPoint x="465" y="515" as="targetPoint" />
            <Array as="points">
              <mxPoint x="300" y="440" />
              <mxPoint x="380" y="440" />
            </Array>
          </mxGeometry>
        </mxCell>
        <mxCell id="gtYnEdTjVLz-L2qjGS6A-1059" value="" style="curved=1;endArrow=classic;html=1;rounded=0;strokeColor=#7EA6E0;strokeWidth=2;" edge="1" parent="1" source="gtYnEdTjVLz-L2qjGS6A-1036">
          <mxGeometry width="50" height="50" relative="1" as="geometry">
            <mxPoint x="240" y="560" as="sourcePoint" />
            <mxPoint x="465" y="525" as="targetPoint" />
            <Array as="points">
              <mxPoint x="300" y="640" />
              <mxPoint x="380" y="640" />
            </Array>
          </mxGeometry>
        </mxCell>
        <mxCell id="gtYnEdTjVLz-L2qjGS6A-1068" value="" style="endArrow=none;html=1;rounded=0;exitX=1;exitY=0.5;exitDx=0;exitDy=0;" edge="1" parent="1">
          <mxGeometry width="50" height="50" relative="1" as="geometry">
            <mxPoint x="280" y="239.26" as="sourcePoint" />
            <mxPoint x="320" y="239.26" as="targetPoint" />
          </mxGeometry>
        </mxCell>
        <mxCell id="gtYnEdTjVLz-L2qjGS6A-1078" value="" style="curved=1;endArrow=classic;html=1;rounded=0;entryX=1;entryY=1;entryDx=0;entryDy=0;strokeColor=#7EA6E0;strokeWidth=2;" edge="1" parent="1" source="gtYnEdTjVLz-L2qjGS6A-1045" target="gtYnEdTjVLz-L2qjGS6A-1040">
          <mxGeometry width="50" height="50" relative="1" as="geometry">
            <mxPoint x="310" y="515" as="sourcePoint" />
            <mxPoint x="360" y="465" as="targetPoint" />
            <Array as="points">
              <mxPoint x="540" y="640" />
              <mxPoint x="460" y="640" />
            </Array>
          </mxGeometry>
        </mxCell>
        <mxCell id="gtYnEdTjVLz-L2qjGS6A-1079" value="" style="curved=1;endArrow=classic;html=1;rounded=0;strokeColor=#7EA6E0;strokeWidth=2;" edge="1" parent="1" source="gtYnEdTjVLz-L2qjGS6A-1044">
          <mxGeometry width="50" height="50" relative="1" as="geometry">
            <mxPoint x="310" y="515" as="sourcePoint" />
            <mxPoint x="375" y="555" as="targetPoint" />
            <Array as="points">
              <mxPoint x="540" y="460" />
              <mxPoint x="460" y="460" />
            </Array>
          </mxGeometry>
        </mxCell>
        <mxCell id="gtYnEdTjVLz-L2qjGS6A-1080" value="" style="curved=1;endArrow=classic;html=1;rounded=0;strokeColor=#7EA6E0;strokeWidth=2;" edge="1" parent="1">
          <mxGeometry width="50" height="50" relative="1" as="geometry">
            <mxPoint x="370" y="520" as="sourcePoint" />
            <mxPoint x="160" y="600" as="targetPoint" />
            <Array as="points">
              <mxPoint x="300" y="440" />
              <mxPoint x="220" y="440" />
            </Array>
          </mxGeometry>
        </mxCell>
        <mxCell id="gtYnEdTjVLz-L2qjGS6A-1086" value="" style="curved=1;endArrow=classic;html=1;rounded=0;strokeColor=#7EA6E0;strokeWidth=2;" edge="1" parent="1" source="gtYnEdTjVLz-L2qjGS6A-1043">
          <mxGeometry width="50" height="50" relative="1" as="geometry">
            <mxPoint x="510" y="530" as="sourcePoint" />
            <mxPoint x="680" y="600" as="targetPoint" />
            <Array as="points">
              <mxPoint x="560" y="440" />
              <mxPoint x="640" y="440" />
            </Array>
          </mxGeometry>
        </mxCell>
        <mxCell id="gtYnEdTjVLz-L2qjGS6A-1087" value="" style="curved=1;endArrow=classic;html=1;rounded=0;exitX=1;exitY=0;exitDx=0;exitDy=0;entryX=0;entryY=0.25;entryDx=0;entryDy=0;strokeColor=#7EA6E0;strokeWidth=2;" edge="1" parent="1" source="gtYnEdTjVLz-L2qjGS6A-1041" target="gtYnEdTjVLz-L2qjGS6A-984">
          <mxGeometry width="50" height="50" relative="1" as="geometry">
            <mxPoint x="490" y="450" as="sourcePoint" />
            <mxPoint x="540" y="400" as="targetPoint" />
            <Array as="points">
              <mxPoint x="280" y="640" />
              <mxPoint x="200" y="640" />
            </Array>
          </mxGeometry>
        </mxCell>
        <mxCell id="gtYnEdTjVLz-L2qjGS6A-1088" value="" style="curved=1;endArrow=classic;html=1;rounded=0;entryX=1;entryY=0.5;entryDx=0;entryDy=0;strokeColor=#7EA6E0;strokeWidth=2;" edge="1" parent="1" source="gtYnEdTjVLz-L2qjGS6A-1042" target="gtYnEdTjVLz-L2qjGS6A-989">
          <mxGeometry width="50" height="50" relative="1" as="geometry">
            <mxPoint x="490" y="450" as="sourcePoint" />
            <mxPoint x="540" y="400" as="targetPoint" />
            <Array as="points">
              <mxPoint x="560" y="640" />
              <mxPoint x="640" y="640" />
            </Array>
          </mxGeometry>
        </mxCell>
        <mxCell id="gtYnEdTjVLz-L2qjGS6A-1089" value="" style="rounded=1;whiteSpace=wrap;html=1;dashed=1;fillColor=none;fillStyle=dashed;strokeColor=#FF0000;strokeWidth=2;opacity=75;" vertex="1" parent="1">
          <mxGeometry x="40" y="540" width="140" height="120" as="geometry" />
        </mxCell>
        <mxCell id="gtYnEdTjVLz-L2qjGS6A-1090" value="" style="rounded=1;whiteSpace=wrap;html=1;dashed=1;fillColor=none;fillStyle=dashed;strokeColor=#00AB00;strokeWidth=2;opacity=75;" vertex="1" parent="1">
          <mxGeometry x="660" y="420" width="140" height="120" as="geometry" />
        </mxCell>
        <mxCell id="gtYnEdTjVLz-L2qjGS6A-1091" value="&lt;font color=&quot;#7ea6e0&quot;&gt;A1&lt;/font&gt;" style="text;html=1;strokeColor=none;fillColor=none;align=center;verticalAlign=middle;whiteSpace=wrap;rounded=0;" vertex="1" parent="1">
          <mxGeometry x="240" y="510" width="25" height="20" as="geometry" />
        </mxCell>
        <mxCell id="gtYnEdTjVLz-L2qjGS6A-1092" value="&lt;font color=&quot;#7ea6e0&quot;&gt;A2&lt;br&gt;&lt;/font&gt;" style="text;html=1;strokeColor=none;fillColor=none;align=center;verticalAlign=middle;whiteSpace=wrap;rounded=0;" vertex="1" parent="1">
          <mxGeometry x="240" y="550" width="25" height="20" as="geometry" />
        </mxCell>
        <mxCell id="gtYnEdTjVLz-L2qjGS6A-1093" value="&lt;font color=&quot;#7ea6e0&quot;&gt;B1&lt;br&gt;&lt;/font&gt;" style="text;html=1;strokeColor=none;fillColor=none;align=center;verticalAlign=middle;whiteSpace=wrap;rounded=0;" vertex="1" parent="1">
          <mxGeometry x="335" y="550" width="25" height="20" as="geometry" />
        </mxCell>
        <mxCell id="gtYnEdTjVLz-L2qjGS6A-1094" value="&lt;font color=&quot;#7ea6e0&quot;&gt;B2&lt;br&gt;&lt;/font&gt;" style="text;html=1;strokeColor=none;fillColor=none;align=center;verticalAlign=middle;whiteSpace=wrap;rounded=0;" vertex="1" parent="1">
          <mxGeometry x="335" y="510" width="25" height="20" as="geometry" />
        </mxCell>
        <mxCell id="gtYnEdTjVLz-L2qjGS6A-1095" value="&lt;font color=&quot;#7ea6e0&quot;&gt;C1&lt;/font&gt;" style="text;html=1;strokeColor=none;fillColor=none;align=center;verticalAlign=middle;whiteSpace=wrap;rounded=0;" vertex="1" parent="1">
          <mxGeometry x="477.5" y="510" width="25" height="20" as="geometry" />
        </mxCell>
        <mxCell id="gtYnEdTjVLz-L2qjGS6A-1096" value="&lt;font color=&quot;#7ea6e0&quot;&gt;C2&lt;/font&gt;" style="text;html=1;strokeColor=none;fillColor=none;align=center;verticalAlign=middle;whiteSpace=wrap;rounded=0;" vertex="1" parent="1">
          <mxGeometry x="480" y="550" width="25" height="20" as="geometry" />
        </mxCell>
        <mxCell id="gtYnEdTjVLz-L2qjGS6A-1097" value="&lt;font color=&quot;#7ea6e0&quot;&gt;D2&lt;/font&gt;" style="text;html=1;strokeColor=none;fillColor=none;align=center;verticalAlign=middle;whiteSpace=wrap;rounded=0;" vertex="1" parent="1">
          <mxGeometry x="575" y="510" width="25" height="20" as="geometry" />
        </mxCell>
        <mxCell id="gtYnEdTjVLz-L2qjGS6A-1098" value="&lt;font color=&quot;#7ea6e0&quot;&gt;D1&lt;/font&gt;" style="text;html=1;strokeColor=none;fillColor=none;align=center;verticalAlign=middle;whiteSpace=wrap;rounded=0;" vertex="1" parent="1">
          <mxGeometry x="575" y="550" width="25" height="20" as="geometry" />
        </mxCell>
        <mxCell id="gtYnEdTjVLz-L2qjGS6A-1193" value="" style="triangle;whiteSpace=wrap;html=1;rotation=-180;" vertex="1" parent="1">
          <mxGeometry x="680" y="560" width="60" height="80" as="geometry" />
        </mxCell>
        <mxCell id="gtYnEdTjVLz-L2qjGS6A-1194" value="" style="endArrow=none;html=1;rounded=0;exitX=0;exitY=0.75;exitDx=0;exitDy=0;" edge="1" parent="1" source="gtYnEdTjVLz-L2qjGS6A-1193">
          <mxGeometry width="50" height="50" relative="1" as="geometry">
            <mxPoint x="820" y="860" as="sourcePoint" />
            <mxPoint x="780" y="580" as="targetPoint" />
          </mxGeometry>
        </mxCell>
        <mxCell id="gtYnEdTjVLz-L2qjGS6A-1195" value="" style="endArrow=none;html=1;rounded=0;exitX=0;exitY=0.25;exitDx=0;exitDy=0;" edge="1" parent="1" source="gtYnEdTjVLz-L2qjGS6A-1193">
          <mxGeometry width="50" height="50" relative="1" as="geometry">
            <mxPoint x="750" y="600" as="sourcePoint" />
            <mxPoint x="780" y="620" as="targetPoint" />
          </mxGeometry>
        </mxCell>
        <mxCell id="gtYnEdTjVLz-L2qjGS6A-1196" value="&lt;font style=&quot;font-size: 20px;&quot;&gt;W&lt;br&gt;&lt;/font&gt;" style="text;html=1;strokeColor=none;fillColor=none;align=center;verticalAlign=middle;whiteSpace=wrap;rounded=0;" vertex="1" parent="1">
          <mxGeometry x="705" y="590" width="20" height="20" as="geometry" />
        </mxCell>
        <mxCell id="gtYnEdTjVLz-L2qjGS6A-1197" value="" style="endArrow=none;html=1;rounded=0;" edge="1" parent="1">
          <mxGeometry width="50" height="50" relative="1" as="geometry">
            <mxPoint x="780" y="590" as="sourcePoint" />
            <mxPoint x="780" y="570" as="targetPoint" />
          </mxGeometry>
        </mxCell>
        <mxCell id="gtYnEdTjVLz-L2qjGS6A-1198" value="" style="endArrow=none;html=1;rounded=0;" edge="1" parent="1">
          <mxGeometry width="50" height="50" relative="1" as="geometry">
            <mxPoint x="780" y="630" as="sourcePoint" />
            <mxPoint x="780" y="610" as="targetPoint" />
          </mxGeometry>
        </mxCell>
        <mxCell id="gtYnEdTjVLz-L2qjGS6A-1199" value="1&lt;br&gt;" style="text;html=1;strokeColor=none;fillColor=none;align=center;verticalAlign=middle;whiteSpace=wrap;rounded=0;" vertex="1" parent="1">
          <mxGeometry x="730" y="615" width="10" height="10" as="geometry" />
        </mxCell>
        <mxCell id="gtYnEdTjVLz-L2qjGS6A-1200" value="0" style="text;html=1;strokeColor=none;fillColor=none;align=center;verticalAlign=middle;whiteSpace=wrap;rounded=0;" vertex="1" parent="1">
          <mxGeometry x="685" y="595" width="10" height="10" as="geometry" />
        </mxCell>
        <mxCell id="gtYnEdTjVLz-L2qjGS6A-1201" value="2" style="text;html=1;strokeColor=none;fillColor=none;align=center;verticalAlign=middle;whiteSpace=wrap;rounded=0;" vertex="1" parent="1">
          <mxGeometry x="730" y="575" width="10" height="10" as="geometry" />
        </mxCell>
        <mxCell id="gtYnEdTjVLz-L2qjGS6A-1348" value="" style="triangle;whiteSpace=wrap;html=1;rotation=-180;" vertex="1" parent="1">
          <mxGeometry x="679.87" y="260" width="60" height="80" as="geometry" />
        </mxCell>
        <mxCell id="gtYnEdTjVLz-L2qjGS6A-1349" value="" style="endArrow=none;html=1;rounded=0;exitX=0;exitY=0.75;exitDx=0;exitDy=0;" edge="1" parent="1" source="gtYnEdTjVLz-L2qjGS6A-1348">
          <mxGeometry width="50" height="50" relative="1" as="geometry">
            <mxPoint x="819.87" y="560" as="sourcePoint" />
            <mxPoint x="779.87" y="280" as="targetPoint" />
          </mxGeometry>
        </mxCell>
        <mxCell id="gtYnEdTjVLz-L2qjGS6A-1350" value="" style="endArrow=none;html=1;rounded=0;exitX=0;exitY=0.25;exitDx=0;exitDy=0;" edge="1" parent="1" source="gtYnEdTjVLz-L2qjGS6A-1348">
          <mxGeometry width="50" height="50" relative="1" as="geometry">
            <mxPoint x="749.87" y="300" as="sourcePoint" />
            <mxPoint x="779.87" y="320" as="targetPoint" />
          </mxGeometry>
        </mxCell>
        <mxCell id="gtYnEdTjVLz-L2qjGS6A-1351" value="&lt;font style=&quot;font-size: 20px;&quot;&gt;W&lt;br&gt;&lt;/font&gt;" style="text;html=1;strokeColor=none;fillColor=none;align=center;verticalAlign=middle;whiteSpace=wrap;rounded=0;" vertex="1" parent="1">
          <mxGeometry x="704.87" y="290" width="20" height="20" as="geometry" />
        </mxCell>
        <mxCell id="gtYnEdTjVLz-L2qjGS6A-1352" value="" style="endArrow=none;html=1;rounded=0;" edge="1" parent="1">
          <mxGeometry width="50" height="50" relative="1" as="geometry">
            <mxPoint x="779.87" y="290" as="sourcePoint" />
            <mxPoint x="779.87" y="270" as="targetPoint" />
          </mxGeometry>
        </mxCell>
        <mxCell id="gtYnEdTjVLz-L2qjGS6A-1353" value="" style="endArrow=none;html=1;rounded=0;" edge="1" parent="1">
          <mxGeometry width="50" height="50" relative="1" as="geometry">
            <mxPoint x="779.87" y="330" as="sourcePoint" />
            <mxPoint x="779.87" y="310" as="targetPoint" />
          </mxGeometry>
        </mxCell>
        <mxCell id="gtYnEdTjVLz-L2qjGS6A-1354" value="1&lt;br&gt;" style="text;html=1;strokeColor=none;fillColor=none;align=center;verticalAlign=middle;whiteSpace=wrap;rounded=0;" vertex="1" parent="1">
          <mxGeometry x="729.87" y="315" width="10" height="10" as="geometry" />
        </mxCell>
        <mxCell id="gtYnEdTjVLz-L2qjGS6A-1355" value="0" style="text;html=1;strokeColor=none;fillColor=none;align=center;verticalAlign=middle;whiteSpace=wrap;rounded=0;" vertex="1" parent="1">
          <mxGeometry x="684.87" y="295" width="10" height="10" as="geometry" />
        </mxCell>
        <mxCell id="gtYnEdTjVLz-L2qjGS6A-1356" value="2" style="text;html=1;strokeColor=none;fillColor=none;align=center;verticalAlign=middle;whiteSpace=wrap;rounded=0;" vertex="1" parent="1">
          <mxGeometry x="729.87" y="275" width="10" height="10" as="geometry" />
        </mxCell>
        <mxCell id="gtYnEdTjVLz-L2qjGS6A-1357" value="" style="rounded=1;whiteSpace=wrap;html=1;dashed=1;fillColor=none;fillStyle=dashed;strokeColor=#00AB00;strokeWidth=2;opacity=75;" vertex="1" parent="1">
          <mxGeometry x="660" y="540" width="140" height="120" as="geometry" />
        </mxCell>
        <mxCell id="gtYnEdTjVLz-L2qjGS6A-1537" value="" style="endArrow=none;html=1;rounded=0;exitX=0;exitY=0.25;exitDx=0;exitDy=0;" edge="1" parent="1">
          <mxGeometry width="50" height="50" relative="1" as="geometry">
            <mxPoint x="220" y="840" as="sourcePoint" />
            <mxPoint x="160" y="820" as="targetPoint" />
          </mxGeometry>
        </mxCell>
        <mxCell id="gtYnEdTjVLz-L2qjGS6A-1538" value="" style="endArrow=none;html=1;rounded=0;exitX=0;exitY=0.75;exitDx=0;exitDy=0;entryX=1;entryY=0.5;entryDx=0;entryDy=0;" edge="1" parent="1" target="gtYnEdTjVLz-L2qjGS6A-1543">
          <mxGeometry width="50" height="50" relative="1" as="geometry">
            <mxPoint x="220" y="880" as="sourcePoint" />
            <mxPoint x="160" y="900" as="targetPoint" />
          </mxGeometry>
        </mxCell>
        <mxCell id="gtYnEdTjVLz-L2qjGS6A-1539" value="" style="endArrow=none;html=1;rounded=0;entryX=1;entryY=0.5;entryDx=0;entryDy=0;strokeWidth=2;strokeColor=#00AB00;" edge="1" parent="1" target="gtYnEdTjVLz-L2qjGS6A-1546">
          <mxGeometry width="50" height="50" relative="1" as="geometry">
            <mxPoint x="610" y="840" as="sourcePoint" />
            <mxPoint x="660" y="840" as="targetPoint" />
          </mxGeometry>
        </mxCell>
        <mxCell id="gtYnEdTjVLz-L2qjGS6A-1540" value="" style="endArrow=none;html=1;rounded=0;exitX=0;exitY=0.25;exitDx=0;exitDy=0;" edge="1" parent="1">
          <mxGeometry width="50" height="50" relative="1" as="geometry">
            <mxPoint x="620" y="880" as="sourcePoint" />
            <mxPoint x="680" y="920" as="targetPoint" />
          </mxGeometry>
        </mxCell>
        <mxCell id="gtYnEdTjVLz-L2qjGS6A-1541" value="" style="triangle;whiteSpace=wrap;html=1;rotation=-180;" vertex="1" parent="1">
          <mxGeometry x="100" y="760" width="60" height="80" as="geometry" />
        </mxCell>
        <mxCell id="gtYnEdTjVLz-L2qjGS6A-1542" value="" style="endArrow=none;html=1;rounded=0;exitX=1;exitY=0.5;exitDx=0;exitDy=0;" edge="1" parent="1" source="gtYnEdTjVLz-L2qjGS6A-1541">
          <mxGeometry width="50" height="50" relative="1" as="geometry">
            <mxPoint x="790" y="850" as="sourcePoint" />
            <mxPoint x="60" y="800" as="targetPoint" />
          </mxGeometry>
        </mxCell>
        <mxCell id="gtYnEdTjVLz-L2qjGS6A-1543" value="" style="triangle;whiteSpace=wrap;html=1;" vertex="1" parent="1">
          <mxGeometry x="100" y="880" width="60" height="80" as="geometry" />
        </mxCell>
        <mxCell id="gtYnEdTjVLz-L2qjGS6A-1544" value="" style="endArrow=none;html=1;rounded=0;exitX=1;exitY=0.5;exitDx=0;exitDy=0;" edge="1" parent="1">
          <mxGeometry width="50" height="50" relative="1" as="geometry">
            <mxPoint x="100" y="900" as="sourcePoint" />
            <mxPoint x="60" y="900" as="targetPoint" />
          </mxGeometry>
        </mxCell>
        <mxCell id="gtYnEdTjVLz-L2qjGS6A-1545" value="" style="endArrow=none;html=1;rounded=0;exitX=1;exitY=0.5;exitDx=0;exitDy=0;" edge="1" parent="1">
          <mxGeometry width="50" height="50" relative="1" as="geometry">
            <mxPoint x="100" y="940" as="sourcePoint" />
            <mxPoint x="60" y="940" as="targetPoint" />
          </mxGeometry>
        </mxCell>
        <mxCell id="gtYnEdTjVLz-L2qjGS6A-1546" value="" style="triangle;whiteSpace=wrap;html=1;rotation=-180;" vertex="1" parent="1">
          <mxGeometry x="680" y="760" width="60" height="80" as="geometry" />
        </mxCell>
        <mxCell id="gtYnEdTjVLz-L2qjGS6A-1547" value="" style="endArrow=none;html=1;rounded=0;exitX=0;exitY=0.75;exitDx=0;exitDy=0;" edge="1" parent="1" source="gtYnEdTjVLz-L2qjGS6A-1546">
          <mxGeometry width="50" height="50" relative="1" as="geometry">
            <mxPoint x="820" y="1060" as="sourcePoint" />
            <mxPoint x="780" y="780" as="targetPoint" />
          </mxGeometry>
        </mxCell>
        <mxCell id="gtYnEdTjVLz-L2qjGS6A-1548" value="" style="endArrow=none;html=1;rounded=0;exitX=0;exitY=0.25;exitDx=0;exitDy=0;" edge="1" parent="1" source="gtYnEdTjVLz-L2qjGS6A-1546">
          <mxGeometry width="50" height="50" relative="1" as="geometry">
            <mxPoint x="750" y="800" as="sourcePoint" />
            <mxPoint x="780" y="820" as="targetPoint" />
          </mxGeometry>
        </mxCell>
        <mxCell id="gtYnEdTjVLz-L2qjGS6A-1549" value="" style="endArrow=none;html=1;rounded=0;exitX=0;exitY=0.25;exitDx=0;exitDy=0;" edge="1" parent="1">
          <mxGeometry width="50" height="50" relative="1" as="geometry">
            <mxPoint x="160" y="780" as="sourcePoint" />
            <mxPoint x="200" y="760" as="targetPoint" />
          </mxGeometry>
        </mxCell>
        <mxCell id="gtYnEdTjVLz-L2qjGS6A-1550" value="&lt;font style=&quot;font-size: 20px;&quot;&gt;X&lt;/font&gt;" style="text;html=1;strokeColor=none;fillColor=none;align=center;verticalAlign=middle;whiteSpace=wrap;rounded=0;" vertex="1" parent="1">
          <mxGeometry x="125" y="790" width="20" height="20" as="geometry" />
        </mxCell>
        <mxCell id="gtYnEdTjVLz-L2qjGS6A-1551" value="&lt;font style=&quot;font-size: 20px;&quot;&gt;Y&lt;/font&gt;" style="text;html=1;strokeColor=none;fillColor=none;align=center;verticalAlign=middle;whiteSpace=wrap;rounded=0;" vertex="1" parent="1">
          <mxGeometry x="115" y="910" width="20" height="20" as="geometry" />
        </mxCell>
        <mxCell id="gtYnEdTjVLz-L2qjGS6A-1552" value="&lt;font style=&quot;font-size: 20px;&quot;&gt;Z&lt;/font&gt;" style="text;html=1;strokeColor=none;fillColor=none;align=center;verticalAlign=middle;whiteSpace=wrap;rounded=0;" vertex="1" parent="1">
          <mxGeometry x="705" y="790" width="20" height="20" as="geometry" />
        </mxCell>
        <mxCell id="gtYnEdTjVLz-L2qjGS6A-1553" value="" style="endArrow=none;html=1;rounded=0;" edge="1" parent="1">
          <mxGeometry width="50" height="50" relative="1" as="geometry">
            <mxPoint x="60" y="910" as="sourcePoint" />
            <mxPoint x="60" y="890" as="targetPoint" />
          </mxGeometry>
        </mxCell>
        <mxCell id="gtYnEdTjVLz-L2qjGS6A-1554" value="" style="endArrow=none;html=1;rounded=0;" edge="1" parent="1">
          <mxGeometry width="50" height="50" relative="1" as="geometry">
            <mxPoint x="60" y="950" as="sourcePoint" />
            <mxPoint x="60" y="930" as="targetPoint" />
          </mxGeometry>
        </mxCell>
        <mxCell id="gtYnEdTjVLz-L2qjGS6A-1555" value="" style="endArrow=none;html=1;rounded=0;" edge="1" parent="1">
          <mxGeometry width="50" height="50" relative="1" as="geometry">
            <mxPoint x="780" y="790" as="sourcePoint" />
            <mxPoint x="780" y="770" as="targetPoint" />
          </mxGeometry>
        </mxCell>
        <mxCell id="gtYnEdTjVLz-L2qjGS6A-1556" value="" style="endArrow=none;html=1;rounded=0;" edge="1" parent="1">
          <mxGeometry width="50" height="50" relative="1" as="geometry">
            <mxPoint x="780" y="830" as="sourcePoint" />
            <mxPoint x="780" y="810" as="targetPoint" />
          </mxGeometry>
        </mxCell>
        <mxCell id="gtYnEdTjVLz-L2qjGS6A-1557" value="1&lt;br&gt;" style="text;html=1;strokeColor=none;fillColor=none;align=center;verticalAlign=middle;whiteSpace=wrap;rounded=0;" vertex="1" parent="1">
          <mxGeometry x="150" y="815" width="10" height="10" as="geometry" />
        </mxCell>
        <mxCell id="gtYnEdTjVLz-L2qjGS6A-1558" value="1&lt;br&gt;" style="text;html=1;strokeColor=none;fillColor=none;align=center;verticalAlign=middle;whiteSpace=wrap;rounded=0;" vertex="1" parent="1">
          <mxGeometry x="100" y="895" width="10" height="10" as="geometry" />
        </mxCell>
        <mxCell id="gtYnEdTjVLz-L2qjGS6A-1559" value="1&lt;br&gt;" style="text;html=1;strokeColor=none;fillColor=none;align=center;verticalAlign=middle;whiteSpace=wrap;rounded=0;" vertex="1" parent="1">
          <mxGeometry x="730" y="815" width="10" height="10" as="geometry" />
        </mxCell>
        <mxCell id="gtYnEdTjVLz-L2qjGS6A-1560" value="0" style="text;html=1;strokeColor=none;fillColor=none;align=center;verticalAlign=middle;whiteSpace=wrap;rounded=0;" vertex="1" parent="1">
          <mxGeometry x="105" y="795" width="10" height="10" as="geometry" />
        </mxCell>
        <mxCell id="gtYnEdTjVLz-L2qjGS6A-1561" value="0" style="text;html=1;strokeColor=none;fillColor=none;align=center;verticalAlign=middle;whiteSpace=wrap;rounded=0;" vertex="1" parent="1">
          <mxGeometry x="145" y="915" width="10" height="10" as="geometry" />
        </mxCell>
        <mxCell id="gtYnEdTjVLz-L2qjGS6A-1562" value="0" style="text;html=1;strokeColor=none;fillColor=none;align=center;verticalAlign=middle;whiteSpace=wrap;rounded=0;" vertex="1" parent="1">
          <mxGeometry x="685" y="795" width="10" height="10" as="geometry" />
        </mxCell>
        <mxCell id="gtYnEdTjVLz-L2qjGS6A-1563" value="2" style="text;html=1;strokeColor=none;fillColor=none;align=center;verticalAlign=middle;whiteSpace=wrap;rounded=0;" vertex="1" parent="1">
          <mxGeometry x="730" y="775" width="10" height="10" as="geometry" />
        </mxCell>
        <mxCell id="gtYnEdTjVLz-L2qjGS6A-1564" value="2" style="text;html=1;strokeColor=none;fillColor=none;align=center;verticalAlign=middle;whiteSpace=wrap;rounded=0;" vertex="1" parent="1">
          <mxGeometry x="100" y="935" width="10" height="10" as="geometry" />
        </mxCell>
        <mxCell id="gtYnEdTjVLz-L2qjGS6A-1565" value="2" style="text;html=1;strokeColor=none;fillColor=none;align=center;verticalAlign=middle;whiteSpace=wrap;rounded=0;" vertex="1" parent="1">
          <mxGeometry x="150" y="775" width="10" height="10" as="geometry" />
        </mxCell>
        <mxCell id="gtYnEdTjVLz-L2qjGS6A-1566" value="" style="endArrow=none;html=1;rounded=0;" edge="1" parent="1">
          <mxGeometry width="50" height="50" relative="1" as="geometry">
            <mxPoint x="200" y="770" as="sourcePoint" />
            <mxPoint x="200" y="750" as="targetPoint" />
          </mxGeometry>
        </mxCell>
        <mxCell id="gtYnEdTjVLz-L2qjGS6A-1567" value="" style="rhombus;whiteSpace=wrap;html=1;fillColor=#7EA6E0;strokeColor=none;" vertex="1" parent="1">
          <mxGeometry x="220" y="870" width="20" height="20" as="geometry" />
        </mxCell>
        <mxCell id="gtYnEdTjVLz-L2qjGS6A-1568" value="" style="rhombus;whiteSpace=wrap;html=1;fillColor=#7EA6E0;strokeColor=none;" vertex="1" parent="1">
          <mxGeometry x="220" y="830" width="20" height="20" as="geometry" />
        </mxCell>
        <mxCell id="gtYnEdTjVLz-L2qjGS6A-1569" value="" style="rhombus;whiteSpace=wrap;html=1;fillColor=#7EA6E0;strokeColor=none;" vertex="1" parent="1">
          <mxGeometry x="360" y="830" width="20" height="20" as="geometry" />
        </mxCell>
        <mxCell id="gtYnEdTjVLz-L2qjGS6A-1571" value="" style="rhombus;whiteSpace=wrap;html=1;fillColor=#7EA6E0;strokeColor=none;" vertex="1" parent="1">
          <mxGeometry x="460" y="870" width="20" height="20" as="geometry" />
        </mxCell>
        <mxCell id="gtYnEdTjVLz-L2qjGS6A-1572" value="" style="rhombus;whiteSpace=wrap;html=1;fillColor=#7EA6E0;strokeColor=none;" vertex="1" parent="1">
          <mxGeometry x="460" y="830" width="20" height="20" as="geometry" />
        </mxCell>
        <mxCell id="gtYnEdTjVLz-L2qjGS6A-1574" value="" style="rhombus;whiteSpace=wrap;html=1;fillColor=#7EA6E0;strokeColor=none;" vertex="1" parent="1">
          <mxGeometry x="600" y="870" width="20" height="20" as="geometry" />
        </mxCell>
        <mxCell id="gtYnEdTjVLz-L2qjGS6A-1575" value="" style="endArrow=classic;html=1;strokeColor=#7EA6E0;entryX=0;entryY=0;entryDx=0;entryDy=0;curved=1;strokeWidth=2;" edge="1" parent="1" source="gtYnEdTjVLz-L2qjGS6A-1568" target="gtYnEdTjVLz-L2qjGS6A-1571">
          <mxGeometry width="50" height="50" relative="1" as="geometry">
            <mxPoint x="320" y="805" as="sourcePoint" />
            <mxPoint x="465" y="835" as="targetPoint" />
            <Array as="points">
              <mxPoint x="300" y="760" />
              <mxPoint x="380" y="760" />
            </Array>
          </mxGeometry>
        </mxCell>
        <mxCell id="gtYnEdTjVLz-L2qjGS6A-1576" value="" style="curved=1;endArrow=classic;html=1;rounded=0;strokeColor=#7EA6E0;strokeWidth=2;" edge="1" parent="1" source="gtYnEdTjVLz-L2qjGS6A-1567">
          <mxGeometry width="50" height="50" relative="1" as="geometry">
            <mxPoint x="240" y="880" as="sourcePoint" />
            <mxPoint x="465" y="845" as="targetPoint" />
            <Array as="points">
              <mxPoint x="300" y="960" />
              <mxPoint x="380" y="960" />
            </Array>
          </mxGeometry>
        </mxCell>
        <mxCell id="gtYnEdTjVLz-L2qjGS6A-1577" value="" style="curved=1;endArrow=classic;html=1;rounded=0;entryX=1;entryY=1;entryDx=0;entryDy=0;strokeColor=#7EA6E0;strokeWidth=2;" edge="1" parent="1" source="gtYnEdTjVLz-L2qjGS6A-1574" target="gtYnEdTjVLz-L2qjGS6A-1569">
          <mxGeometry width="50" height="50" relative="1" as="geometry">
            <mxPoint x="310" y="835" as="sourcePoint" />
            <mxPoint x="360" y="785" as="targetPoint" />
            <Array as="points">
              <mxPoint x="540" y="960" />
              <mxPoint x="460" y="960" />
            </Array>
          </mxGeometry>
        </mxCell>
        <mxCell id="gtYnEdTjVLz-L2qjGS6A-1578" value="" style="curved=1;endArrow=none;html=1;rounded=0;strokeColor=#00AB00;strokeWidth=2;endFill=0;" edge="1" parent="1">
          <mxGeometry width="50" height="50" relative="1" as="geometry">
            <mxPoint x="610" y="840" as="sourcePoint" />
            <mxPoint x="375" y="875" as="targetPoint" />
            <Array as="points">
              <mxPoint x="540" y="780" />
              <mxPoint x="460" y="780" />
            </Array>
          </mxGeometry>
        </mxCell>
        <mxCell id="gtYnEdTjVLz-L2qjGS6A-1579" value="" style="curved=1;endArrow=classic;html=1;rounded=0;strokeColor=#7EA6E0;strokeWidth=2;" edge="1" parent="1">
          <mxGeometry width="50" height="50" relative="1" as="geometry">
            <mxPoint x="370" y="840" as="sourcePoint" />
            <mxPoint x="160" y="920" as="targetPoint" />
            <Array as="points">
              <mxPoint x="300" y="760" />
              <mxPoint x="220" y="760" />
            </Array>
          </mxGeometry>
        </mxCell>
        <mxCell id="gtYnEdTjVLz-L2qjGS6A-1580" value="" style="curved=1;endArrow=classic;html=1;rounded=0;strokeColor=#7EA6E0;strokeWidth=2;" edge="1" parent="1" source="gtYnEdTjVLz-L2qjGS6A-1572">
          <mxGeometry width="50" height="50" relative="1" as="geometry">
            <mxPoint x="510" y="850" as="sourcePoint" />
            <mxPoint x="680" y="920" as="targetPoint" />
            <Array as="points">
              <mxPoint x="560" y="760" />
              <mxPoint x="640" y="760" />
            </Array>
          </mxGeometry>
        </mxCell>
        <mxCell id="gtYnEdTjVLz-L2qjGS6A-1581" value="" style="curved=1;endArrow=classic;html=1;rounded=0;exitX=1;exitY=0;exitDx=0;exitDy=0;entryX=0;entryY=0.25;entryDx=0;entryDy=0;strokeColor=#00AB00;strokeWidth=2;" edge="1" parent="1" target="gtYnEdTjVLz-L2qjGS6A-1541">
          <mxGeometry width="50" height="50" relative="1" as="geometry">
            <mxPoint x="375" y="875" as="sourcePoint" />
            <mxPoint x="540" y="720" as="targetPoint" />
            <Array as="points">
              <mxPoint x="280" y="960" />
              <mxPoint x="200" y="960" />
            </Array>
          </mxGeometry>
        </mxCell>
        <mxCell id="gtYnEdTjVLz-L2qjGS6A-1582" value="" style="curved=1;endArrow=classic;html=1;rounded=0;entryX=1;entryY=0.5;entryDx=0;entryDy=0;strokeColor=#7EA6E0;strokeWidth=2;" edge="1" parent="1" source="gtYnEdTjVLz-L2qjGS6A-1571" target="gtYnEdTjVLz-L2qjGS6A-1546">
          <mxGeometry width="50" height="50" relative="1" as="geometry">
            <mxPoint x="490" y="770" as="sourcePoint" />
            <mxPoint x="540" y="720" as="targetPoint" />
            <Array as="points">
              <mxPoint x="560" y="960" />
              <mxPoint x="640" y="960" />
            </Array>
          </mxGeometry>
        </mxCell>
        <mxCell id="gtYnEdTjVLz-L2qjGS6A-1583" value="" style="rounded=1;whiteSpace=wrap;html=1;dashed=1;fillColor=none;fillStyle=dashed;strokeColor=#FF0000;strokeWidth=2;opacity=75;" vertex="1" parent="1">
          <mxGeometry x="40" y="860" width="140" height="120" as="geometry" />
        </mxCell>
        <mxCell id="gtYnEdTjVLz-L2qjGS6A-1584" value="" style="rounded=1;whiteSpace=wrap;html=1;dashed=1;fillColor=none;fillStyle=dashed;strokeColor=#00AB00;strokeWidth=2;opacity=75;" vertex="1" parent="1">
          <mxGeometry x="660" y="740" width="140" height="120" as="geometry" />
        </mxCell>
        <mxCell id="gtYnEdTjVLz-L2qjGS6A-1585" value="&lt;font color=&quot;#7ea6e0&quot;&gt;A1&lt;/font&gt;" style="text;html=1;strokeColor=none;fillColor=none;align=center;verticalAlign=middle;whiteSpace=wrap;rounded=0;" vertex="1" parent="1">
          <mxGeometry x="240" y="830" width="25" height="20" as="geometry" />
        </mxCell>
        <mxCell id="gtYnEdTjVLz-L2qjGS6A-1586" value="&lt;font color=&quot;#7ea6e0&quot;&gt;A2&lt;br&gt;&lt;/font&gt;" style="text;html=1;strokeColor=none;fillColor=none;align=center;verticalAlign=middle;whiteSpace=wrap;rounded=0;" vertex="1" parent="1">
          <mxGeometry x="240" y="870" width="25" height="20" as="geometry" />
        </mxCell>
        <mxCell id="gtYnEdTjVLz-L2qjGS6A-1588" value="&lt;font color=&quot;#7ea6e0&quot;&gt;B2&lt;br&gt;&lt;/font&gt;" style="text;html=1;strokeColor=none;fillColor=none;align=center;verticalAlign=middle;whiteSpace=wrap;rounded=0;" vertex="1" parent="1">
          <mxGeometry x="335" y="830" width="25" height="20" as="geometry" />
        </mxCell>
        <mxCell id="gtYnEdTjVLz-L2qjGS6A-1589" value="&lt;font color=&quot;#7ea6e0&quot;&gt;C1&lt;/font&gt;" style="text;html=1;strokeColor=none;fillColor=none;align=center;verticalAlign=middle;whiteSpace=wrap;rounded=0;" vertex="1" parent="1">
          <mxGeometry x="477.5" y="830" width="25" height="20" as="geometry" />
        </mxCell>
        <mxCell id="gtYnEdTjVLz-L2qjGS6A-1590" value="&lt;font color=&quot;#7ea6e0&quot;&gt;C2&lt;/font&gt;" style="text;html=1;strokeColor=none;fillColor=none;align=center;verticalAlign=middle;whiteSpace=wrap;rounded=0;" vertex="1" parent="1">
          <mxGeometry x="480" y="870" width="25" height="20" as="geometry" />
        </mxCell>
        <mxCell id="gtYnEdTjVLz-L2qjGS6A-1592" value="&lt;font color=&quot;#7ea6e0&quot;&gt;D1&lt;/font&gt;" style="text;html=1;strokeColor=none;fillColor=none;align=center;verticalAlign=middle;whiteSpace=wrap;rounded=0;" vertex="1" parent="1">
          <mxGeometry x="575" y="870" width="25" height="20" as="geometry" />
        </mxCell>
        <mxCell id="gtYnEdTjVLz-L2qjGS6A-1593" value="" style="triangle;whiteSpace=wrap;html=1;rotation=-180;" vertex="1" parent="1">
          <mxGeometry x="680" y="880" width="60" height="80" as="geometry" />
        </mxCell>
        <mxCell id="gtYnEdTjVLz-L2qjGS6A-1594" value="" style="endArrow=none;html=1;rounded=0;exitX=0;exitY=0.75;exitDx=0;exitDy=0;" edge="1" parent="1" source="gtYnEdTjVLz-L2qjGS6A-1593">
          <mxGeometry width="50" height="50" relative="1" as="geometry">
            <mxPoint x="820" y="1180" as="sourcePoint" />
            <mxPoint x="780" y="900" as="targetPoint" />
          </mxGeometry>
        </mxCell>
        <mxCell id="gtYnEdTjVLz-L2qjGS6A-1595" value="" style="endArrow=none;html=1;rounded=0;exitX=0;exitY=0.25;exitDx=0;exitDy=0;" edge="1" parent="1" source="gtYnEdTjVLz-L2qjGS6A-1593">
          <mxGeometry width="50" height="50" relative="1" as="geometry">
            <mxPoint x="750" y="920" as="sourcePoint" />
            <mxPoint x="780" y="940" as="targetPoint" />
          </mxGeometry>
        </mxCell>
        <mxCell id="gtYnEdTjVLz-L2qjGS6A-1596" value="&lt;font style=&quot;font-size: 20px;&quot;&gt;W&lt;br&gt;&lt;/font&gt;" style="text;html=1;strokeColor=none;fillColor=none;align=center;verticalAlign=middle;whiteSpace=wrap;rounded=0;" vertex="1" parent="1">
          <mxGeometry x="705" y="910" width="20" height="20" as="geometry" />
        </mxCell>
        <mxCell id="gtYnEdTjVLz-L2qjGS6A-1597" value="" style="endArrow=none;html=1;rounded=0;" edge="1" parent="1">
          <mxGeometry width="50" height="50" relative="1" as="geometry">
            <mxPoint x="780" y="910" as="sourcePoint" />
            <mxPoint x="780" y="890" as="targetPoint" />
          </mxGeometry>
        </mxCell>
        <mxCell id="gtYnEdTjVLz-L2qjGS6A-1598" value="" style="endArrow=none;html=1;rounded=0;" edge="1" parent="1">
          <mxGeometry width="50" height="50" relative="1" as="geometry">
            <mxPoint x="780" y="950" as="sourcePoint" />
            <mxPoint x="780" y="930" as="targetPoint" />
          </mxGeometry>
        </mxCell>
        <mxCell id="gtYnEdTjVLz-L2qjGS6A-1599" value="1&lt;br&gt;" style="text;html=1;strokeColor=none;fillColor=none;align=center;verticalAlign=middle;whiteSpace=wrap;rounded=0;" vertex="1" parent="1">
          <mxGeometry x="730" y="935" width="10" height="10" as="geometry" />
        </mxCell>
        <mxCell id="gtYnEdTjVLz-L2qjGS6A-1600" value="0" style="text;html=1;strokeColor=none;fillColor=none;align=center;verticalAlign=middle;whiteSpace=wrap;rounded=0;" vertex="1" parent="1">
          <mxGeometry x="685" y="915" width="10" height="10" as="geometry" />
        </mxCell>
        <mxCell id="gtYnEdTjVLz-L2qjGS6A-1601" value="2" style="text;html=1;strokeColor=none;fillColor=none;align=center;verticalAlign=middle;whiteSpace=wrap;rounded=0;" vertex="1" parent="1">
          <mxGeometry x="730" y="895" width="10" height="10" as="geometry" />
        </mxCell>
        <mxCell id="gtYnEdTjVLz-L2qjGS6A-1602" value="" style="rounded=1;whiteSpace=wrap;html=1;dashed=1;fillColor=none;fillStyle=dashed;strokeColor=#00AB00;strokeWidth=2;opacity=75;" vertex="1" parent="1">
          <mxGeometry x="660" y="860" width="140" height="120" as="geometry" />
        </mxCell>
        <mxCell id="gtYnEdTjVLz-L2qjGS6A-1603" value="" style="endArrow=none;html=1;rounded=0;" edge="1" parent="1">
          <mxGeometry width="50" height="50" relative="1" as="geometry">
            <mxPoint x="680" y="1120" as="sourcePoint" />
            <mxPoint x="160" y="1140" as="targetPoint" />
          </mxGeometry>
        </mxCell>
        <mxCell id="gtYnEdTjVLz-L2qjGS6A-1604" value="" style="endArrow=none;html=1;rounded=0;exitX=0;exitY=0.75;exitDx=0;exitDy=0;entryX=1;entryY=0.5;entryDx=0;entryDy=0;" edge="1" parent="1" target="gtYnEdTjVLz-L2qjGS6A-1609">
          <mxGeometry width="50" height="50" relative="1" as="geometry">
            <mxPoint x="220" y="1200" as="sourcePoint" />
            <mxPoint x="160" y="1220" as="targetPoint" />
          </mxGeometry>
        </mxCell>
        <mxCell id="gtYnEdTjVLz-L2qjGS6A-1606" value="" style="endArrow=none;html=1;rounded=0;exitX=0;exitY=0.25;exitDx=0;exitDy=0;" edge="1" parent="1">
          <mxGeometry width="50" height="50" relative="1" as="geometry">
            <mxPoint x="620" y="1200" as="sourcePoint" />
            <mxPoint x="680" y="1240" as="targetPoint" />
          </mxGeometry>
        </mxCell>
        <mxCell id="gtYnEdTjVLz-L2qjGS6A-1607" value="" style="triangle;whiteSpace=wrap;html=1;rotation=-180;" vertex="1" parent="1">
          <mxGeometry x="100" y="1080" width="60" height="80" as="geometry" />
        </mxCell>
        <mxCell id="gtYnEdTjVLz-L2qjGS6A-1608" value="" style="endArrow=none;html=1;rounded=0;exitX=1;exitY=0.5;exitDx=0;exitDy=0;" edge="1" parent="1" source="gtYnEdTjVLz-L2qjGS6A-1607">
          <mxGeometry width="50" height="50" relative="1" as="geometry">
            <mxPoint x="790" y="1170" as="sourcePoint" />
            <mxPoint x="60" y="1120" as="targetPoint" />
          </mxGeometry>
        </mxCell>
        <mxCell id="gtYnEdTjVLz-L2qjGS6A-1609" value="" style="triangle;whiteSpace=wrap;html=1;" vertex="1" parent="1">
          <mxGeometry x="100" y="1200" width="60" height="80" as="geometry" />
        </mxCell>
        <mxCell id="gtYnEdTjVLz-L2qjGS6A-1610" value="" style="endArrow=none;html=1;rounded=0;exitX=1;exitY=0.5;exitDx=0;exitDy=0;" edge="1" parent="1">
          <mxGeometry width="50" height="50" relative="1" as="geometry">
            <mxPoint x="100" y="1220" as="sourcePoint" />
            <mxPoint x="60" y="1220" as="targetPoint" />
          </mxGeometry>
        </mxCell>
        <mxCell id="gtYnEdTjVLz-L2qjGS6A-1611" value="" style="endArrow=none;html=1;rounded=0;exitX=1;exitY=0.5;exitDx=0;exitDy=0;" edge="1" parent="1">
          <mxGeometry width="50" height="50" relative="1" as="geometry">
            <mxPoint x="100" y="1260" as="sourcePoint" />
            <mxPoint x="60" y="1260" as="targetPoint" />
          </mxGeometry>
        </mxCell>
        <mxCell id="gtYnEdTjVLz-L2qjGS6A-1612" value="" style="triangle;whiteSpace=wrap;html=1;rotation=-180;" vertex="1" parent="1">
          <mxGeometry x="680" y="1080" width="60" height="80" as="geometry" />
        </mxCell>
        <mxCell id="gtYnEdTjVLz-L2qjGS6A-1613" value="" style="endArrow=none;html=1;rounded=0;exitX=0;exitY=0.75;exitDx=0;exitDy=0;" edge="1" parent="1" source="gtYnEdTjVLz-L2qjGS6A-1612">
          <mxGeometry width="50" height="50" relative="1" as="geometry">
            <mxPoint x="820" y="1380" as="sourcePoint" />
            <mxPoint x="780" y="1100" as="targetPoint" />
          </mxGeometry>
        </mxCell>
        <mxCell id="gtYnEdTjVLz-L2qjGS6A-1614" value="" style="endArrow=none;html=1;rounded=0;exitX=0;exitY=0.25;exitDx=0;exitDy=0;" edge="1" parent="1" source="gtYnEdTjVLz-L2qjGS6A-1612">
          <mxGeometry width="50" height="50" relative="1" as="geometry">
            <mxPoint x="750" y="1120" as="sourcePoint" />
            <mxPoint x="780" y="1140" as="targetPoint" />
          </mxGeometry>
        </mxCell>
        <mxCell id="gtYnEdTjVLz-L2qjGS6A-1615" value="" style="endArrow=none;html=1;rounded=0;exitX=0;exitY=0.25;exitDx=0;exitDy=0;" edge="1" parent="1">
          <mxGeometry width="50" height="50" relative="1" as="geometry">
            <mxPoint x="160" y="1100" as="sourcePoint" />
            <mxPoint x="200" y="1080" as="targetPoint" />
          </mxGeometry>
        </mxCell>
        <mxCell id="gtYnEdTjVLz-L2qjGS6A-1616" value="&lt;font style=&quot;font-size: 20px;&quot;&gt;X&lt;/font&gt;" style="text;html=1;strokeColor=none;fillColor=none;align=center;verticalAlign=middle;whiteSpace=wrap;rounded=0;" vertex="1" parent="1">
          <mxGeometry x="125" y="1110" width="20" height="20" as="geometry" />
        </mxCell>
        <mxCell id="gtYnEdTjVLz-L2qjGS6A-1617" value="&lt;font style=&quot;font-size: 20px;&quot;&gt;Y&lt;/font&gt;" style="text;html=1;strokeColor=none;fillColor=none;align=center;verticalAlign=middle;whiteSpace=wrap;rounded=0;" vertex="1" parent="1">
          <mxGeometry x="115" y="1230" width="20" height="20" as="geometry" />
        </mxCell>
        <mxCell id="gtYnEdTjVLz-L2qjGS6A-1618" value="&lt;font style=&quot;font-size: 20px;&quot;&gt;Z&lt;/font&gt;" style="text;html=1;strokeColor=none;fillColor=none;align=center;verticalAlign=middle;whiteSpace=wrap;rounded=0;" vertex="1" parent="1">
          <mxGeometry x="705" y="1110" width="20" height="20" as="geometry" />
        </mxCell>
        <mxCell id="gtYnEdTjVLz-L2qjGS6A-1619" value="" style="endArrow=none;html=1;rounded=0;" edge="1" parent="1">
          <mxGeometry width="50" height="50" relative="1" as="geometry">
            <mxPoint x="60" y="1230" as="sourcePoint" />
            <mxPoint x="60" y="1210" as="targetPoint" />
          </mxGeometry>
        </mxCell>
        <mxCell id="gtYnEdTjVLz-L2qjGS6A-1620" value="" style="endArrow=none;html=1;rounded=0;" edge="1" parent="1">
          <mxGeometry width="50" height="50" relative="1" as="geometry">
            <mxPoint x="60" y="1270" as="sourcePoint" />
            <mxPoint x="60" y="1250" as="targetPoint" />
          </mxGeometry>
        </mxCell>
        <mxCell id="gtYnEdTjVLz-L2qjGS6A-1621" value="" style="endArrow=none;html=1;rounded=0;" edge="1" parent="1">
          <mxGeometry width="50" height="50" relative="1" as="geometry">
            <mxPoint x="780" y="1110" as="sourcePoint" />
            <mxPoint x="780" y="1090" as="targetPoint" />
          </mxGeometry>
        </mxCell>
        <mxCell id="gtYnEdTjVLz-L2qjGS6A-1622" value="" style="endArrow=none;html=1;rounded=0;" edge="1" parent="1">
          <mxGeometry width="50" height="50" relative="1" as="geometry">
            <mxPoint x="780" y="1150" as="sourcePoint" />
            <mxPoint x="780" y="1130" as="targetPoint" />
          </mxGeometry>
        </mxCell>
        <mxCell id="gtYnEdTjVLz-L2qjGS6A-1623" value="1&lt;br&gt;" style="text;html=1;strokeColor=none;fillColor=none;align=center;verticalAlign=middle;whiteSpace=wrap;rounded=0;" vertex="1" parent="1">
          <mxGeometry x="150" y="1135" width="10" height="10" as="geometry" />
        </mxCell>
        <mxCell id="gtYnEdTjVLz-L2qjGS6A-1624" value="1&lt;br&gt;" style="text;html=1;strokeColor=none;fillColor=none;align=center;verticalAlign=middle;whiteSpace=wrap;rounded=0;" vertex="1" parent="1">
          <mxGeometry x="100" y="1215" width="10" height="10" as="geometry" />
        </mxCell>
        <mxCell id="gtYnEdTjVLz-L2qjGS6A-1625" value="1&lt;br&gt;" style="text;html=1;strokeColor=none;fillColor=none;align=center;verticalAlign=middle;whiteSpace=wrap;rounded=0;" vertex="1" parent="1">
          <mxGeometry x="730" y="1135" width="10" height="10" as="geometry" />
        </mxCell>
        <mxCell id="gtYnEdTjVLz-L2qjGS6A-1626" value="0" style="text;html=1;strokeColor=none;fillColor=none;align=center;verticalAlign=middle;whiteSpace=wrap;rounded=0;" vertex="1" parent="1">
          <mxGeometry x="105" y="1115" width="10" height="10" as="geometry" />
        </mxCell>
        <mxCell id="gtYnEdTjVLz-L2qjGS6A-1627" value="0" style="text;html=1;strokeColor=none;fillColor=none;align=center;verticalAlign=middle;whiteSpace=wrap;rounded=0;" vertex="1" parent="1">
          <mxGeometry x="145" y="1235" width="10" height="10" as="geometry" />
        </mxCell>
        <mxCell id="gtYnEdTjVLz-L2qjGS6A-1628" value="0" style="text;html=1;strokeColor=none;fillColor=none;align=center;verticalAlign=middle;whiteSpace=wrap;rounded=0;" vertex="1" parent="1">
          <mxGeometry x="685" y="1115" width="10" height="10" as="geometry" />
        </mxCell>
        <mxCell id="gtYnEdTjVLz-L2qjGS6A-1629" value="2" style="text;html=1;strokeColor=none;fillColor=none;align=center;verticalAlign=middle;whiteSpace=wrap;rounded=0;" vertex="1" parent="1">
          <mxGeometry x="730" y="1095" width="10" height="10" as="geometry" />
        </mxCell>
        <mxCell id="gtYnEdTjVLz-L2qjGS6A-1630" value="2" style="text;html=1;strokeColor=none;fillColor=none;align=center;verticalAlign=middle;whiteSpace=wrap;rounded=0;" vertex="1" parent="1">
          <mxGeometry x="100" y="1255" width="10" height="10" as="geometry" />
        </mxCell>
        <mxCell id="gtYnEdTjVLz-L2qjGS6A-1631" value="2" style="text;html=1;strokeColor=none;fillColor=none;align=center;verticalAlign=middle;whiteSpace=wrap;rounded=0;" vertex="1" parent="1">
          <mxGeometry x="150" y="1095" width="10" height="10" as="geometry" />
        </mxCell>
        <mxCell id="gtYnEdTjVLz-L2qjGS6A-1632" value="" style="endArrow=none;html=1;rounded=0;" edge="1" parent="1">
          <mxGeometry width="50" height="50" relative="1" as="geometry">
            <mxPoint x="200" y="1090" as="sourcePoint" />
            <mxPoint x="200" y="1070" as="targetPoint" />
          </mxGeometry>
        </mxCell>
        <mxCell id="gtYnEdTjVLz-L2qjGS6A-1633" value="" style="rhombus;whiteSpace=wrap;html=1;fillColor=#7EA6E0;strokeColor=none;" vertex="1" parent="1">
          <mxGeometry x="220" y="1190" width="20" height="20" as="geometry" />
        </mxCell>
        <mxCell id="gtYnEdTjVLz-L2qjGS6A-1634" value="" style="rhombus;whiteSpace=wrap;html=1;fillColor=#00AB00;strokeColor=none;" vertex="1" parent="1">
          <mxGeometry x="220" y="1150" width="20" height="20" as="geometry" />
        </mxCell>
        <mxCell id="gtYnEdTjVLz-L2qjGS6A-1635" value="" style="rhombus;whiteSpace=wrap;html=1;fillColor=#7EA6E0;strokeColor=none;" vertex="1" parent="1">
          <mxGeometry x="360" y="1150" width="20" height="20" as="geometry" />
        </mxCell>
        <mxCell id="gtYnEdTjVLz-L2qjGS6A-1636" value="" style="rhombus;whiteSpace=wrap;html=1;fillColor=#00AB00;strokeColor=none;" vertex="1" parent="1">
          <mxGeometry x="460" y="1190" width="20" height="20" as="geometry" />
        </mxCell>
        <mxCell id="gtYnEdTjVLz-L2qjGS6A-1637" value="" style="rhombus;whiteSpace=wrap;html=1;fillColor=#7EA6E0;strokeColor=none;" vertex="1" parent="1">
          <mxGeometry x="460" y="1150" width="20" height="20" as="geometry" />
        </mxCell>
        <mxCell id="gtYnEdTjVLz-L2qjGS6A-1638" value="" style="rhombus;whiteSpace=wrap;html=1;fillColor=#7EA6E0;strokeColor=none;" vertex="1" parent="1">
          <mxGeometry x="600" y="1190" width="20" height="20" as="geometry" />
        </mxCell>
        <mxCell id="gtYnEdTjVLz-L2qjGS6A-1639" value="" style="endArrow=classic;html=1;strokeColor=#00AB00;entryX=0;entryY=0;entryDx=0;entryDy=0;curved=1;strokeWidth=2;" edge="1" parent="1" source="gtYnEdTjVLz-L2qjGS6A-1634" target="gtYnEdTjVLz-L2qjGS6A-1636">
          <mxGeometry width="50" height="50" relative="1" as="geometry">
            <mxPoint x="320" y="1125" as="sourcePoint" />
            <mxPoint x="465" y="1155" as="targetPoint" />
            <Array as="points">
              <mxPoint x="300" y="1080" />
              <mxPoint x="380" y="1080" />
            </Array>
          </mxGeometry>
        </mxCell>
        <mxCell id="gtYnEdTjVLz-L2qjGS6A-1640" value="" style="curved=1;endArrow=classic;html=1;rounded=0;strokeColor=#7EA6E0;strokeWidth=2;" edge="1" parent="1" source="gtYnEdTjVLz-L2qjGS6A-1633">
          <mxGeometry width="50" height="50" relative="1" as="geometry">
            <mxPoint x="240" y="1200" as="sourcePoint" />
            <mxPoint x="465" y="1165" as="targetPoint" />
            <Array as="points">
              <mxPoint x="300" y="1280" />
              <mxPoint x="380" y="1280" />
            </Array>
          </mxGeometry>
        </mxCell>
        <mxCell id="gtYnEdTjVLz-L2qjGS6A-1641" value="" style="curved=1;endArrow=classic;html=1;rounded=0;entryX=1;entryY=1;entryDx=0;entryDy=0;strokeColor=#7EA6E0;strokeWidth=2;" edge="1" parent="1" source="gtYnEdTjVLz-L2qjGS6A-1638" target="gtYnEdTjVLz-L2qjGS6A-1635">
          <mxGeometry width="50" height="50" relative="1" as="geometry">
            <mxPoint x="310" y="1155" as="sourcePoint" />
            <mxPoint x="360" y="1105" as="targetPoint" />
            <Array as="points">
              <mxPoint x="540" y="1280" />
              <mxPoint x="460" y="1280" />
            </Array>
          </mxGeometry>
        </mxCell>
        <mxCell id="gtYnEdTjVLz-L2qjGS6A-1643" value="" style="curved=1;endArrow=classic;html=1;rounded=0;strokeColor=#7EA6E0;strokeWidth=2;" edge="1" parent="1">
          <mxGeometry width="50" height="50" relative="1" as="geometry">
            <mxPoint x="370" y="1160" as="sourcePoint" />
            <mxPoint x="160" y="1240" as="targetPoint" />
            <Array as="points">
              <mxPoint x="300" y="1080" />
              <mxPoint x="220" y="1080" />
            </Array>
          </mxGeometry>
        </mxCell>
        <mxCell id="gtYnEdTjVLz-L2qjGS6A-1644" value="" style="curved=1;endArrow=classic;html=1;rounded=0;strokeColor=#7EA6E0;strokeWidth=2;" edge="1" parent="1" source="gtYnEdTjVLz-L2qjGS6A-1637">
          <mxGeometry width="50" height="50" relative="1" as="geometry">
            <mxPoint x="510" y="1170" as="sourcePoint" />
            <mxPoint x="680" y="1240" as="targetPoint" />
            <Array as="points">
              <mxPoint x="560" y="1080" />
              <mxPoint x="640" y="1080" />
            </Array>
          </mxGeometry>
        </mxCell>
        <mxCell id="gtYnEdTjVLz-L2qjGS6A-1646" value="" style="curved=1;endArrow=classic;html=1;rounded=0;entryX=1;entryY=0.5;entryDx=0;entryDy=0;strokeColor=#00AB00;strokeWidth=2;" edge="1" parent="1" source="gtYnEdTjVLz-L2qjGS6A-1636" target="gtYnEdTjVLz-L2qjGS6A-1612">
          <mxGeometry width="50" height="50" relative="1" as="geometry">
            <mxPoint x="490" y="1090" as="sourcePoint" />
            <mxPoint x="540" y="1040" as="targetPoint" />
            <Array as="points">
              <mxPoint x="560" y="1280" />
              <mxPoint x="640" y="1280" />
            </Array>
          </mxGeometry>
        </mxCell>
        <mxCell id="gtYnEdTjVLz-L2qjGS6A-1647" value="" style="rounded=1;whiteSpace=wrap;html=1;dashed=1;fillColor=none;fillStyle=dashed;strokeColor=#FF0000;strokeWidth=2;opacity=75;" vertex="1" parent="1">
          <mxGeometry x="40" y="1180" width="140" height="120" as="geometry" />
        </mxCell>
        <mxCell id="gtYnEdTjVLz-L2qjGS6A-1648" value="" style="rounded=1;whiteSpace=wrap;html=1;dashed=1;fillColor=none;fillStyle=dashed;strokeColor=#00AB00;strokeWidth=2;opacity=50;movable=1;resizable=1;rotatable=1;deletable=1;editable=1;locked=0;connectable=1;" vertex="1" parent="1">
          <mxGeometry x="660" y="1060" width="140" height="120" as="geometry" />
        </mxCell>
        <mxCell id="gtYnEdTjVLz-L2qjGS6A-1649" value="&lt;font color=&quot;#7ea6e0&quot;&gt;A1&lt;/font&gt;" style="text;html=1;strokeColor=none;fillColor=none;align=center;verticalAlign=middle;whiteSpace=wrap;rounded=0;" vertex="1" parent="1">
          <mxGeometry x="240" y="1150" width="25" height="20" as="geometry" />
        </mxCell>
        <mxCell id="gtYnEdTjVLz-L2qjGS6A-1650" value="&lt;font color=&quot;#7ea6e0&quot;&gt;A2&lt;br&gt;&lt;/font&gt;" style="text;html=1;strokeColor=none;fillColor=none;align=center;verticalAlign=middle;whiteSpace=wrap;rounded=0;" vertex="1" parent="1">
          <mxGeometry x="240" y="1190" width="25" height="20" as="geometry" />
        </mxCell>
        <mxCell id="gtYnEdTjVLz-L2qjGS6A-1651" value="&lt;font color=&quot;#7ea6e0&quot;&gt;B2&lt;br&gt;&lt;/font&gt;" style="text;html=1;strokeColor=none;fillColor=none;align=center;verticalAlign=middle;whiteSpace=wrap;rounded=0;" vertex="1" parent="1">
          <mxGeometry x="335" y="1150" width="25" height="20" as="geometry" />
        </mxCell>
        <mxCell id="gtYnEdTjVLz-L2qjGS6A-1652" value="&lt;font color=&quot;#7ea6e0&quot;&gt;C1&lt;/font&gt;" style="text;html=1;strokeColor=none;fillColor=none;align=center;verticalAlign=middle;whiteSpace=wrap;rounded=0;" vertex="1" parent="1">
          <mxGeometry x="477.5" y="1150" width="25" height="20" as="geometry" />
        </mxCell>
        <mxCell id="gtYnEdTjVLz-L2qjGS6A-1653" value="&lt;font color=&quot;#7ea6e0&quot;&gt;C2&lt;/font&gt;" style="text;html=1;strokeColor=none;fillColor=none;align=center;verticalAlign=middle;whiteSpace=wrap;rounded=0;" vertex="1" parent="1">
          <mxGeometry x="480" y="1190" width="25" height="20" as="geometry" />
        </mxCell>
        <mxCell id="gtYnEdTjVLz-L2qjGS6A-1654" value="&lt;font color=&quot;#7ea6e0&quot;&gt;D1&lt;/font&gt;" style="text;html=1;strokeColor=none;fillColor=none;align=center;verticalAlign=middle;whiteSpace=wrap;rounded=0;" vertex="1" parent="1">
          <mxGeometry x="575" y="1190" width="25" height="20" as="geometry" />
        </mxCell>
        <mxCell id="gtYnEdTjVLz-L2qjGS6A-1655" value="" style="triangle;whiteSpace=wrap;html=1;rotation=-180;" vertex="1" parent="1">
          <mxGeometry x="680" y="1200" width="60" height="80" as="geometry" />
        </mxCell>
        <mxCell id="gtYnEdTjVLz-L2qjGS6A-1656" value="" style="endArrow=none;html=1;rounded=0;exitX=0;exitY=0.75;exitDx=0;exitDy=0;" edge="1" parent="1" source="gtYnEdTjVLz-L2qjGS6A-1655">
          <mxGeometry width="50" height="50" relative="1" as="geometry">
            <mxPoint x="820" y="1500" as="sourcePoint" />
            <mxPoint x="780" y="1220" as="targetPoint" />
          </mxGeometry>
        </mxCell>
        <mxCell id="gtYnEdTjVLz-L2qjGS6A-1657" value="" style="endArrow=none;html=1;rounded=0;exitX=0;exitY=0.25;exitDx=0;exitDy=0;" edge="1" parent="1" source="gtYnEdTjVLz-L2qjGS6A-1655">
          <mxGeometry width="50" height="50" relative="1" as="geometry">
            <mxPoint x="750" y="1240" as="sourcePoint" />
            <mxPoint x="780" y="1260" as="targetPoint" />
          </mxGeometry>
        </mxCell>
        <mxCell id="gtYnEdTjVLz-L2qjGS6A-1658" value="&lt;font style=&quot;font-size: 20px;&quot;&gt;W&lt;br&gt;&lt;/font&gt;" style="text;html=1;strokeColor=none;fillColor=none;align=center;verticalAlign=middle;whiteSpace=wrap;rounded=0;" vertex="1" parent="1">
          <mxGeometry x="705" y="1230" width="20" height="20" as="geometry" />
        </mxCell>
        <mxCell id="gtYnEdTjVLz-L2qjGS6A-1659" value="" style="endArrow=none;html=1;rounded=0;" edge="1" parent="1">
          <mxGeometry width="50" height="50" relative="1" as="geometry">
            <mxPoint x="780" y="1230" as="sourcePoint" />
            <mxPoint x="780" y="1210" as="targetPoint" />
          </mxGeometry>
        </mxCell>
        <mxCell id="gtYnEdTjVLz-L2qjGS6A-1660" value="" style="endArrow=none;html=1;rounded=0;" edge="1" parent="1">
          <mxGeometry width="50" height="50" relative="1" as="geometry">
            <mxPoint x="780" y="1270" as="sourcePoint" />
            <mxPoint x="780" y="1250" as="targetPoint" />
          </mxGeometry>
        </mxCell>
        <mxCell id="gtYnEdTjVLz-L2qjGS6A-1661" value="1&lt;br&gt;" style="text;html=1;strokeColor=none;fillColor=none;align=center;verticalAlign=middle;whiteSpace=wrap;rounded=0;" vertex="1" parent="1">
          <mxGeometry x="730" y="1255" width="10" height="10" as="geometry" />
        </mxCell>
        <mxCell id="gtYnEdTjVLz-L2qjGS6A-1662" value="0" style="text;html=1;strokeColor=none;fillColor=none;align=center;verticalAlign=middle;whiteSpace=wrap;rounded=0;" vertex="1" parent="1">
          <mxGeometry x="685" y="1235" width="10" height="10" as="geometry" />
        </mxCell>
        <mxCell id="gtYnEdTjVLz-L2qjGS6A-1663" value="2" style="text;html=1;strokeColor=none;fillColor=none;align=center;verticalAlign=middle;whiteSpace=wrap;rounded=0;" vertex="1" parent="1">
          <mxGeometry x="730" y="1215" width="10" height="10" as="geometry" />
        </mxCell>
        <mxCell id="gtYnEdTjVLz-L2qjGS6A-1664" value="" style="rounded=1;whiteSpace=wrap;html=1;dashed=1;fillColor=none;fillStyle=dashed;strokeColor=#00AB00;strokeWidth=2;opacity=75;" vertex="1" parent="1">
          <mxGeometry x="660" y="1180" width="140" height="120" as="geometry" />
        </mxCell>
        <mxCell id="gtYnEdTjVLz-L2qjGS6A-1665" value="" style="endArrow=none;html=1;rounded=0;" edge="1" parent="1">
          <mxGeometry width="50" height="50" relative="1" as="geometry">
            <mxPoint x="680" y="1440" as="sourcePoint" />
            <mxPoint x="160" y="1460" as="targetPoint" />
          </mxGeometry>
        </mxCell>
        <mxCell id="gtYnEdTjVLz-L2qjGS6A-1666" value="" style="endArrow=none;html=1;rounded=0;exitX=0;exitY=0.75;exitDx=0;exitDy=0;entryX=1;entryY=0.5;entryDx=0;entryDy=0;" edge="1" parent="1" target="gtYnEdTjVLz-L2qjGS6A-1670">
          <mxGeometry width="50" height="50" relative="1" as="geometry">
            <mxPoint x="220" y="1520" as="sourcePoint" />
            <mxPoint x="160" y="1540" as="targetPoint" />
          </mxGeometry>
        </mxCell>
        <mxCell id="gtYnEdTjVLz-L2qjGS6A-1667" value="" style="endArrow=none;html=1;rounded=0;exitX=0;exitY=0.25;exitDx=0;exitDy=0;" edge="1" parent="1">
          <mxGeometry width="50" height="50" relative="1" as="geometry">
            <mxPoint x="620" y="1520" as="sourcePoint" />
            <mxPoint x="680" y="1560" as="targetPoint" />
          </mxGeometry>
        </mxCell>
        <mxCell id="gtYnEdTjVLz-L2qjGS6A-1668" value="" style="triangle;whiteSpace=wrap;html=1;rotation=-180;" vertex="1" parent="1">
          <mxGeometry x="100" y="1400" width="60" height="80" as="geometry" />
        </mxCell>
        <mxCell id="gtYnEdTjVLz-L2qjGS6A-1669" value="" style="endArrow=none;html=1;rounded=0;exitX=1;exitY=0.5;exitDx=0;exitDy=0;" edge="1" parent="1" source="gtYnEdTjVLz-L2qjGS6A-1668">
          <mxGeometry width="50" height="50" relative="1" as="geometry">
            <mxPoint x="790" y="1490" as="sourcePoint" />
            <mxPoint x="60" y="1440" as="targetPoint" />
          </mxGeometry>
        </mxCell>
        <mxCell id="gtYnEdTjVLz-L2qjGS6A-1670" value="" style="triangle;whiteSpace=wrap;html=1;" vertex="1" parent="1">
          <mxGeometry x="100" y="1520" width="60" height="80" as="geometry" />
        </mxCell>
        <mxCell id="gtYnEdTjVLz-L2qjGS6A-1671" value="" style="endArrow=none;html=1;rounded=0;exitX=1;exitY=0.5;exitDx=0;exitDy=0;" edge="1" parent="1">
          <mxGeometry width="50" height="50" relative="1" as="geometry">
            <mxPoint x="100" y="1540" as="sourcePoint" />
            <mxPoint x="60" y="1540" as="targetPoint" />
          </mxGeometry>
        </mxCell>
        <mxCell id="gtYnEdTjVLz-L2qjGS6A-1672" value="" style="endArrow=none;html=1;rounded=0;exitX=1;exitY=0.5;exitDx=0;exitDy=0;" edge="1" parent="1">
          <mxGeometry width="50" height="50" relative="1" as="geometry">
            <mxPoint x="100" y="1580" as="sourcePoint" />
            <mxPoint x="60" y="1580" as="targetPoint" />
          </mxGeometry>
        </mxCell>
        <mxCell id="gtYnEdTjVLz-L2qjGS6A-1673" value="" style="triangle;whiteSpace=wrap;html=1;rotation=-180;" vertex="1" parent="1">
          <mxGeometry x="680" y="1400" width="60" height="80" as="geometry" />
        </mxCell>
        <mxCell id="gtYnEdTjVLz-L2qjGS6A-1674" value="" style="endArrow=none;html=1;rounded=0;exitX=0;exitY=0.75;exitDx=0;exitDy=0;" edge="1" parent="1" source="gtYnEdTjVLz-L2qjGS6A-1673">
          <mxGeometry width="50" height="50" relative="1" as="geometry">
            <mxPoint x="820" y="1700" as="sourcePoint" />
            <mxPoint x="780" y="1420" as="targetPoint" />
          </mxGeometry>
        </mxCell>
        <mxCell id="gtYnEdTjVLz-L2qjGS6A-1675" value="" style="endArrow=none;html=1;rounded=0;exitX=0;exitY=0.25;exitDx=0;exitDy=0;" edge="1" parent="1" source="gtYnEdTjVLz-L2qjGS6A-1673">
          <mxGeometry width="50" height="50" relative="1" as="geometry">
            <mxPoint x="750" y="1440" as="sourcePoint" />
            <mxPoint x="780" y="1460" as="targetPoint" />
          </mxGeometry>
        </mxCell>
        <mxCell id="gtYnEdTjVLz-L2qjGS6A-1676" value="" style="endArrow=none;html=1;rounded=0;exitX=0;exitY=0.25;exitDx=0;exitDy=0;" edge="1" parent="1">
          <mxGeometry width="50" height="50" relative="1" as="geometry">
            <mxPoint x="160" y="1420" as="sourcePoint" />
            <mxPoint x="200" y="1400" as="targetPoint" />
          </mxGeometry>
        </mxCell>
        <mxCell id="gtYnEdTjVLz-L2qjGS6A-1677" value="&lt;font style=&quot;font-size: 20px;&quot;&gt;X&lt;/font&gt;" style="text;html=1;strokeColor=none;fillColor=none;align=center;verticalAlign=middle;whiteSpace=wrap;rounded=0;" vertex="1" parent="1">
          <mxGeometry x="125" y="1430" width="20" height="20" as="geometry" />
        </mxCell>
        <mxCell id="gtYnEdTjVLz-L2qjGS6A-1678" value="&lt;font style=&quot;font-size: 20px;&quot;&gt;Y&lt;/font&gt;" style="text;html=1;strokeColor=none;fillColor=none;align=center;verticalAlign=middle;whiteSpace=wrap;rounded=0;" vertex="1" parent="1">
          <mxGeometry x="115" y="1550" width="20" height="20" as="geometry" />
        </mxCell>
        <mxCell id="gtYnEdTjVLz-L2qjGS6A-1679" value="&lt;font style=&quot;font-size: 20px;&quot;&gt;Z&lt;/font&gt;" style="text;html=1;strokeColor=none;fillColor=none;align=center;verticalAlign=middle;whiteSpace=wrap;rounded=0;" vertex="1" parent="1">
          <mxGeometry x="705" y="1430" width="20" height="20" as="geometry" />
        </mxCell>
        <mxCell id="gtYnEdTjVLz-L2qjGS6A-1680" value="" style="endArrow=none;html=1;rounded=0;" edge="1" parent="1">
          <mxGeometry width="50" height="50" relative="1" as="geometry">
            <mxPoint x="60" y="1550" as="sourcePoint" />
            <mxPoint x="60" y="1530" as="targetPoint" />
          </mxGeometry>
        </mxCell>
        <mxCell id="gtYnEdTjVLz-L2qjGS6A-1681" value="" style="endArrow=none;html=1;rounded=0;" edge="1" parent="1">
          <mxGeometry width="50" height="50" relative="1" as="geometry">
            <mxPoint x="60" y="1590" as="sourcePoint" />
            <mxPoint x="60" y="1570" as="targetPoint" />
          </mxGeometry>
        </mxCell>
        <mxCell id="gtYnEdTjVLz-L2qjGS6A-1682" value="" style="endArrow=none;html=1;rounded=0;" edge="1" parent="1">
          <mxGeometry width="50" height="50" relative="1" as="geometry">
            <mxPoint x="780" y="1430" as="sourcePoint" />
            <mxPoint x="780" y="1410" as="targetPoint" />
          </mxGeometry>
        </mxCell>
        <mxCell id="gtYnEdTjVLz-L2qjGS6A-1683" value="" style="endArrow=none;html=1;rounded=0;" edge="1" parent="1">
          <mxGeometry width="50" height="50" relative="1" as="geometry">
            <mxPoint x="780" y="1470" as="sourcePoint" />
            <mxPoint x="780" y="1450" as="targetPoint" />
          </mxGeometry>
        </mxCell>
        <mxCell id="gtYnEdTjVLz-L2qjGS6A-1684" value="1&lt;br&gt;" style="text;html=1;strokeColor=none;fillColor=none;align=center;verticalAlign=middle;whiteSpace=wrap;rounded=0;" vertex="1" parent="1">
          <mxGeometry x="150" y="1455" width="10" height="10" as="geometry" />
        </mxCell>
        <mxCell id="gtYnEdTjVLz-L2qjGS6A-1685" value="1&lt;br&gt;" style="text;html=1;strokeColor=none;fillColor=none;align=center;verticalAlign=middle;whiteSpace=wrap;rounded=0;" vertex="1" parent="1">
          <mxGeometry x="100" y="1535" width="10" height="10" as="geometry" />
        </mxCell>
        <mxCell id="gtYnEdTjVLz-L2qjGS6A-1686" value="1&lt;br&gt;" style="text;html=1;strokeColor=none;fillColor=none;align=center;verticalAlign=middle;whiteSpace=wrap;rounded=0;" vertex="1" parent="1">
          <mxGeometry x="730" y="1455" width="10" height="10" as="geometry" />
        </mxCell>
        <mxCell id="gtYnEdTjVLz-L2qjGS6A-1687" value="0" style="text;html=1;strokeColor=none;fillColor=none;align=center;verticalAlign=middle;whiteSpace=wrap;rounded=0;" vertex="1" parent="1">
          <mxGeometry x="105" y="1435" width="10" height="10" as="geometry" />
        </mxCell>
        <mxCell id="gtYnEdTjVLz-L2qjGS6A-1688" value="0" style="text;html=1;strokeColor=none;fillColor=none;align=center;verticalAlign=middle;whiteSpace=wrap;rounded=0;" vertex="1" parent="1">
          <mxGeometry x="145" y="1555" width="10" height="10" as="geometry" />
        </mxCell>
        <mxCell id="gtYnEdTjVLz-L2qjGS6A-1689" value="0" style="text;html=1;strokeColor=none;fillColor=none;align=center;verticalAlign=middle;whiteSpace=wrap;rounded=0;" vertex="1" parent="1">
          <mxGeometry x="685" y="1435" width="10" height="10" as="geometry" />
        </mxCell>
        <mxCell id="gtYnEdTjVLz-L2qjGS6A-1690" value="2" style="text;html=1;strokeColor=none;fillColor=none;align=center;verticalAlign=middle;whiteSpace=wrap;rounded=0;" vertex="1" parent="1">
          <mxGeometry x="730" y="1415" width="10" height="10" as="geometry" />
        </mxCell>
        <mxCell id="gtYnEdTjVLz-L2qjGS6A-1691" value="2" style="text;html=1;strokeColor=none;fillColor=none;align=center;verticalAlign=middle;whiteSpace=wrap;rounded=0;" vertex="1" parent="1">
          <mxGeometry x="100" y="1575" width="10" height="10" as="geometry" />
        </mxCell>
        <mxCell id="gtYnEdTjVLz-L2qjGS6A-1692" value="2" style="text;html=1;strokeColor=none;fillColor=none;align=center;verticalAlign=middle;whiteSpace=wrap;rounded=0;" vertex="1" parent="1">
          <mxGeometry x="150" y="1415" width="10" height="10" as="geometry" />
        </mxCell>
        <mxCell id="gtYnEdTjVLz-L2qjGS6A-1693" value="" style="endArrow=none;html=1;rounded=0;" edge="1" parent="1">
          <mxGeometry width="50" height="50" relative="1" as="geometry">
            <mxPoint x="200" y="1410" as="sourcePoint" />
            <mxPoint x="200" y="1390" as="targetPoint" />
          </mxGeometry>
        </mxCell>
        <mxCell id="gtYnEdTjVLz-L2qjGS6A-1694" value="" style="rhombus;whiteSpace=wrap;html=1;fillColor=#7EA6E0;strokeColor=none;" vertex="1" parent="1">
          <mxGeometry x="220" y="1510" width="20" height="20" as="geometry" />
        </mxCell>
        <mxCell id="gtYnEdTjVLz-L2qjGS6A-1696" value="" style="rhombus;whiteSpace=wrap;html=1;fillColor=#7EA6E0;strokeColor=none;" vertex="1" parent="1">
          <mxGeometry x="360" y="1470" width="20" height="20" as="geometry" />
        </mxCell>
        <mxCell id="gtYnEdTjVLz-L2qjGS6A-1698" value="" style="rhombus;whiteSpace=wrap;html=1;fillColor=#7EA6E0;strokeColor=none;" vertex="1" parent="1">
          <mxGeometry x="460" y="1470" width="20" height="20" as="geometry" />
        </mxCell>
        <mxCell id="gtYnEdTjVLz-L2qjGS6A-1699" value="" style="rhombus;whiteSpace=wrap;html=1;fillColor=#7EA6E0;strokeColor=none;" vertex="1" parent="1">
          <mxGeometry x="600" y="1510" width="20" height="20" as="geometry" />
        </mxCell>
        <mxCell id="gtYnEdTjVLz-L2qjGS6A-1701" value="" style="curved=1;endArrow=classic;html=1;rounded=0;strokeColor=#7EA6E0;strokeWidth=2;" edge="1" parent="1" source="gtYnEdTjVLz-L2qjGS6A-1694">
          <mxGeometry width="50" height="50" relative="1" as="geometry">
            <mxPoint x="240" y="1520" as="sourcePoint" />
            <mxPoint x="465" y="1485" as="targetPoint" />
            <Array as="points">
              <mxPoint x="300" y="1600" />
              <mxPoint x="380" y="1600" />
            </Array>
          </mxGeometry>
        </mxCell>
        <mxCell id="gtYnEdTjVLz-L2qjGS6A-1702" value="" style="curved=1;endArrow=classic;html=1;rounded=0;entryX=1;entryY=1;entryDx=0;entryDy=0;strokeColor=#7EA6E0;strokeWidth=2;" edge="1" parent="1" source="gtYnEdTjVLz-L2qjGS6A-1699" target="gtYnEdTjVLz-L2qjGS6A-1696">
          <mxGeometry width="50" height="50" relative="1" as="geometry">
            <mxPoint x="310" y="1475" as="sourcePoint" />
            <mxPoint x="360" y="1425" as="targetPoint" />
            <Array as="points">
              <mxPoint x="540" y="1600" />
              <mxPoint x="460" y="1600" />
            </Array>
          </mxGeometry>
        </mxCell>
        <mxCell id="gtYnEdTjVLz-L2qjGS6A-1703" value="" style="curved=1;endArrow=classic;html=1;rounded=0;strokeColor=#7EA6E0;strokeWidth=2;" edge="1" parent="1">
          <mxGeometry width="50" height="50" relative="1" as="geometry">
            <mxPoint x="370" y="1480" as="sourcePoint" />
            <mxPoint x="160" y="1560" as="targetPoint" />
            <Array as="points">
              <mxPoint x="300" y="1400" />
              <mxPoint x="220" y="1400" />
            </Array>
          </mxGeometry>
        </mxCell>
        <mxCell id="gtYnEdTjVLz-L2qjGS6A-1704" value="" style="curved=1;endArrow=classic;html=1;rounded=0;strokeColor=#7EA6E0;strokeWidth=2;" edge="1" parent="1" source="gtYnEdTjVLz-L2qjGS6A-1698">
          <mxGeometry width="50" height="50" relative="1" as="geometry">
            <mxPoint x="510" y="1490" as="sourcePoint" />
            <mxPoint x="680" y="1560" as="targetPoint" />
            <Array as="points">
              <mxPoint x="560" y="1400" />
              <mxPoint x="640" y="1400" />
            </Array>
          </mxGeometry>
        </mxCell>
        <mxCell id="gtYnEdTjVLz-L2qjGS6A-1706" value="" style="rounded=1;whiteSpace=wrap;html=1;dashed=1;fillColor=none;fillStyle=dashed;strokeColor=#FF0000;strokeWidth=2;opacity=75;" vertex="1" parent="1">
          <mxGeometry x="40" y="1500" width="140" height="120" as="geometry" />
        </mxCell>
        <mxCell id="gtYnEdTjVLz-L2qjGS6A-1709" value="&lt;font color=&quot;#7ea6e0&quot;&gt;A2&lt;br&gt;&lt;/font&gt;" style="text;html=1;strokeColor=none;fillColor=none;align=center;verticalAlign=middle;whiteSpace=wrap;rounded=0;" vertex="1" parent="1">
          <mxGeometry x="240" y="1510" width="25" height="20" as="geometry" />
        </mxCell>
        <mxCell id="gtYnEdTjVLz-L2qjGS6A-1710" value="&lt;font color=&quot;#7ea6e0&quot;&gt;B2&lt;br&gt;&lt;/font&gt;" style="text;html=1;strokeColor=none;fillColor=none;align=center;verticalAlign=middle;whiteSpace=wrap;rounded=0;" vertex="1" parent="1">
          <mxGeometry x="335" y="1470" width="25" height="20" as="geometry" />
        </mxCell>
        <mxCell id="gtYnEdTjVLz-L2qjGS6A-1711" value="&lt;font color=&quot;#7ea6e0&quot;&gt;C1&lt;/font&gt;" style="text;html=1;strokeColor=none;fillColor=none;align=center;verticalAlign=middle;whiteSpace=wrap;rounded=0;" vertex="1" parent="1">
          <mxGeometry x="477.5" y="1470" width="25" height="20" as="geometry" />
        </mxCell>
        <mxCell id="gtYnEdTjVLz-L2qjGS6A-1713" value="&lt;font color=&quot;#7ea6e0&quot;&gt;D1&lt;/font&gt;" style="text;html=1;strokeColor=none;fillColor=none;align=center;verticalAlign=middle;whiteSpace=wrap;rounded=0;" vertex="1" parent="1">
          <mxGeometry x="575" y="1510" width="25" height="20" as="geometry" />
        </mxCell>
        <mxCell id="gtYnEdTjVLz-L2qjGS6A-1714" value="" style="triangle;whiteSpace=wrap;html=1;rotation=-180;" vertex="1" parent="1">
          <mxGeometry x="680" y="1520" width="60" height="80" as="geometry" />
        </mxCell>
        <mxCell id="gtYnEdTjVLz-L2qjGS6A-1715" value="" style="endArrow=none;html=1;rounded=0;exitX=0;exitY=0.75;exitDx=0;exitDy=0;" edge="1" parent="1" source="gtYnEdTjVLz-L2qjGS6A-1714">
          <mxGeometry width="50" height="50" relative="1" as="geometry">
            <mxPoint x="820" y="1820" as="sourcePoint" />
            <mxPoint x="780" y="1540" as="targetPoint" />
          </mxGeometry>
        </mxCell>
        <mxCell id="gtYnEdTjVLz-L2qjGS6A-1716" value="" style="endArrow=none;html=1;rounded=0;exitX=0;exitY=0.25;exitDx=0;exitDy=0;" edge="1" parent="1" source="gtYnEdTjVLz-L2qjGS6A-1714">
          <mxGeometry width="50" height="50" relative="1" as="geometry">
            <mxPoint x="750" y="1560" as="sourcePoint" />
            <mxPoint x="780" y="1580" as="targetPoint" />
          </mxGeometry>
        </mxCell>
        <mxCell id="gtYnEdTjVLz-L2qjGS6A-1717" value="&lt;font style=&quot;font-size: 20px;&quot;&gt;W&lt;br&gt;&lt;/font&gt;" style="text;html=1;strokeColor=none;fillColor=none;align=center;verticalAlign=middle;whiteSpace=wrap;rounded=0;" vertex="1" parent="1">
          <mxGeometry x="705" y="1550" width="20" height="20" as="geometry" />
        </mxCell>
        <mxCell id="gtYnEdTjVLz-L2qjGS6A-1718" value="" style="endArrow=none;html=1;rounded=0;" edge="1" parent="1">
          <mxGeometry width="50" height="50" relative="1" as="geometry">
            <mxPoint x="780" y="1550" as="sourcePoint" />
            <mxPoint x="780" y="1530" as="targetPoint" />
          </mxGeometry>
        </mxCell>
        <mxCell id="gtYnEdTjVLz-L2qjGS6A-1719" value="" style="endArrow=none;html=1;rounded=0;" edge="1" parent="1">
          <mxGeometry width="50" height="50" relative="1" as="geometry">
            <mxPoint x="780" y="1590" as="sourcePoint" />
            <mxPoint x="780" y="1570" as="targetPoint" />
          </mxGeometry>
        </mxCell>
        <mxCell id="gtYnEdTjVLz-L2qjGS6A-1720" value="1&lt;br&gt;" style="text;html=1;strokeColor=none;fillColor=none;align=center;verticalAlign=middle;whiteSpace=wrap;rounded=0;" vertex="1" parent="1">
          <mxGeometry x="730" y="1575" width="10" height="10" as="geometry" />
        </mxCell>
        <mxCell id="gtYnEdTjVLz-L2qjGS6A-1721" value="0" style="text;html=1;strokeColor=none;fillColor=none;align=center;verticalAlign=middle;whiteSpace=wrap;rounded=0;" vertex="1" parent="1">
          <mxGeometry x="685" y="1555" width="10" height="10" as="geometry" />
        </mxCell>
        <mxCell id="gtYnEdTjVLz-L2qjGS6A-1722" value="2" style="text;html=1;strokeColor=none;fillColor=none;align=center;verticalAlign=middle;whiteSpace=wrap;rounded=0;" vertex="1" parent="1">
          <mxGeometry x="730" y="1535" width="10" height="10" as="geometry" />
        </mxCell>
        <mxCell id="gtYnEdTjVLz-L2qjGS6A-1723" value="" style="rounded=1;whiteSpace=wrap;html=1;dashed=1;fillColor=none;fillStyle=dashed;strokeColor=#00AB00;strokeWidth=2;opacity=75;" vertex="1" parent="1">
          <mxGeometry x="660" y="1500" width="140" height="120" as="geometry" />
        </mxCell>
        <mxCell id="gtYnEdTjVLz-L2qjGS6A-1724" value="" style="endArrow=none;html=1;rounded=0;" edge="1" parent="1">
          <mxGeometry width="50" height="50" relative="1" as="geometry">
            <mxPoint x="680" y="1760" as="sourcePoint" />
            <mxPoint x="160" y="1780" as="targetPoint" />
          </mxGeometry>
        </mxCell>
        <mxCell id="gtYnEdTjVLz-L2qjGS6A-1725" value="" style="endArrow=none;html=1;rounded=0;entryX=1;entryY=0.5;entryDx=0;entryDy=0;strokeWidth=2;strokeColor=#FF0000;" edge="1" parent="1" target="gtYnEdTjVLz-L2qjGS6A-1729">
          <mxGeometry width="50" height="50" relative="1" as="geometry">
            <mxPoint x="230" y="1840" as="sourcePoint" />
            <mxPoint x="160" y="1860" as="targetPoint" />
          </mxGeometry>
        </mxCell>
        <mxCell id="gtYnEdTjVLz-L2qjGS6A-1726" value="" style="endArrow=none;html=1;rounded=0;strokeWidth=2;strokeColor=#00AB00;" edge="1" parent="1">
          <mxGeometry width="50" height="50" relative="1" as="geometry">
            <mxPoint x="610" y="1840" as="sourcePoint" />
            <mxPoint x="680" y="1880" as="targetPoint" />
          </mxGeometry>
        </mxCell>
        <mxCell id="gtYnEdTjVLz-L2qjGS6A-1727" value="" style="triangle;whiteSpace=wrap;html=1;rotation=-180;" vertex="1" parent="1">
          <mxGeometry x="100" y="1720" width="60" height="80" as="geometry" />
        </mxCell>
        <mxCell id="gtYnEdTjVLz-L2qjGS6A-1728" value="" style="endArrow=none;html=1;rounded=0;exitX=1;exitY=0.5;exitDx=0;exitDy=0;" edge="1" parent="1" source="gtYnEdTjVLz-L2qjGS6A-1727">
          <mxGeometry width="50" height="50" relative="1" as="geometry">
            <mxPoint x="790" y="1810" as="sourcePoint" />
            <mxPoint x="60" y="1760" as="targetPoint" />
          </mxGeometry>
        </mxCell>
        <mxCell id="gtYnEdTjVLz-L2qjGS6A-1729" value="" style="triangle;whiteSpace=wrap;html=1;" vertex="1" parent="1">
          <mxGeometry x="100" y="1840" width="60" height="80" as="geometry" />
        </mxCell>
        <mxCell id="gtYnEdTjVLz-L2qjGS6A-1730" value="" style="endArrow=none;html=1;rounded=0;exitX=1;exitY=0.5;exitDx=0;exitDy=0;" edge="1" parent="1">
          <mxGeometry width="50" height="50" relative="1" as="geometry">
            <mxPoint x="100" y="1860" as="sourcePoint" />
            <mxPoint x="60" y="1860" as="targetPoint" />
          </mxGeometry>
        </mxCell>
        <mxCell id="gtYnEdTjVLz-L2qjGS6A-1731" value="" style="endArrow=none;html=1;rounded=0;exitX=1;exitY=0.5;exitDx=0;exitDy=0;" edge="1" parent="1">
          <mxGeometry width="50" height="50" relative="1" as="geometry">
            <mxPoint x="100" y="1900" as="sourcePoint" />
            <mxPoint x="60" y="1900" as="targetPoint" />
          </mxGeometry>
        </mxCell>
        <mxCell id="gtYnEdTjVLz-L2qjGS6A-1732" value="" style="triangle;whiteSpace=wrap;html=1;rotation=-180;" vertex="1" parent="1">
          <mxGeometry x="680" y="1720" width="60" height="80" as="geometry" />
        </mxCell>
        <mxCell id="gtYnEdTjVLz-L2qjGS6A-1733" value="" style="endArrow=none;html=1;rounded=0;exitX=0;exitY=0.75;exitDx=0;exitDy=0;" edge="1" parent="1" source="gtYnEdTjVLz-L2qjGS6A-1732">
          <mxGeometry width="50" height="50" relative="1" as="geometry">
            <mxPoint x="820" y="2020" as="sourcePoint" />
            <mxPoint x="780" y="1740" as="targetPoint" />
          </mxGeometry>
        </mxCell>
        <mxCell id="gtYnEdTjVLz-L2qjGS6A-1734" value="" style="endArrow=none;html=1;rounded=0;exitX=0;exitY=0.25;exitDx=0;exitDy=0;" edge="1" parent="1" source="gtYnEdTjVLz-L2qjGS6A-1732">
          <mxGeometry width="50" height="50" relative="1" as="geometry">
            <mxPoint x="750" y="1760" as="sourcePoint" />
            <mxPoint x="780" y="1780" as="targetPoint" />
          </mxGeometry>
        </mxCell>
        <mxCell id="gtYnEdTjVLz-L2qjGS6A-1735" value="" style="endArrow=none;html=1;rounded=0;exitX=0;exitY=0.25;exitDx=0;exitDy=0;" edge="1" parent="1">
          <mxGeometry width="50" height="50" relative="1" as="geometry">
            <mxPoint x="160" y="1740" as="sourcePoint" />
            <mxPoint x="200" y="1720" as="targetPoint" />
          </mxGeometry>
        </mxCell>
        <mxCell id="gtYnEdTjVLz-L2qjGS6A-1736" value="&lt;font style=&quot;font-size: 20px;&quot;&gt;X&lt;/font&gt;" style="text;html=1;strokeColor=none;fillColor=none;align=center;verticalAlign=middle;whiteSpace=wrap;rounded=0;" vertex="1" parent="1">
          <mxGeometry x="125" y="1750" width="20" height="20" as="geometry" />
        </mxCell>
        <mxCell id="gtYnEdTjVLz-L2qjGS6A-1737" value="&lt;font style=&quot;font-size: 20px;&quot;&gt;Y&lt;/font&gt;" style="text;html=1;strokeColor=none;fillColor=none;align=center;verticalAlign=middle;whiteSpace=wrap;rounded=0;" vertex="1" parent="1">
          <mxGeometry x="115" y="1870" width="20" height="20" as="geometry" />
        </mxCell>
        <mxCell id="gtYnEdTjVLz-L2qjGS6A-1738" value="&lt;font style=&quot;font-size: 20px;&quot;&gt;Z&lt;/font&gt;" style="text;html=1;strokeColor=none;fillColor=none;align=center;verticalAlign=middle;whiteSpace=wrap;rounded=0;" vertex="1" parent="1">
          <mxGeometry x="705" y="1750" width="20" height="20" as="geometry" />
        </mxCell>
        <mxCell id="gtYnEdTjVLz-L2qjGS6A-1739" value="" style="endArrow=none;html=1;rounded=0;" edge="1" parent="1">
          <mxGeometry width="50" height="50" relative="1" as="geometry">
            <mxPoint x="60" y="1870" as="sourcePoint" />
            <mxPoint x="60" y="1850" as="targetPoint" />
          </mxGeometry>
        </mxCell>
        <mxCell id="gtYnEdTjVLz-L2qjGS6A-1740" value="" style="endArrow=none;html=1;rounded=0;" edge="1" parent="1">
          <mxGeometry width="50" height="50" relative="1" as="geometry">
            <mxPoint x="60" y="1910" as="sourcePoint" />
            <mxPoint x="60" y="1890" as="targetPoint" />
          </mxGeometry>
        </mxCell>
        <mxCell id="gtYnEdTjVLz-L2qjGS6A-1741" value="" style="endArrow=none;html=1;rounded=0;" edge="1" parent="1">
          <mxGeometry width="50" height="50" relative="1" as="geometry">
            <mxPoint x="780" y="1750" as="sourcePoint" />
            <mxPoint x="780" y="1730" as="targetPoint" />
          </mxGeometry>
        </mxCell>
        <mxCell id="gtYnEdTjVLz-L2qjGS6A-1742" value="" style="endArrow=none;html=1;rounded=0;" edge="1" parent="1">
          <mxGeometry width="50" height="50" relative="1" as="geometry">
            <mxPoint x="780" y="1790" as="sourcePoint" />
            <mxPoint x="780" y="1770" as="targetPoint" />
          </mxGeometry>
        </mxCell>
        <mxCell id="gtYnEdTjVLz-L2qjGS6A-1743" value="1&lt;br&gt;" style="text;html=1;strokeColor=none;fillColor=none;align=center;verticalAlign=middle;whiteSpace=wrap;rounded=0;" vertex="1" parent="1">
          <mxGeometry x="150" y="1775" width="10" height="10" as="geometry" />
        </mxCell>
        <mxCell id="gtYnEdTjVLz-L2qjGS6A-1744" value="1&lt;br&gt;" style="text;html=1;strokeColor=none;fillColor=none;align=center;verticalAlign=middle;whiteSpace=wrap;rounded=0;" vertex="1" parent="1">
          <mxGeometry x="100" y="1855" width="10" height="10" as="geometry" />
        </mxCell>
        <mxCell id="gtYnEdTjVLz-L2qjGS6A-1745" value="1&lt;br&gt;" style="text;html=1;strokeColor=none;fillColor=none;align=center;verticalAlign=middle;whiteSpace=wrap;rounded=0;" vertex="1" parent="1">
          <mxGeometry x="730" y="1775" width="10" height="10" as="geometry" />
        </mxCell>
        <mxCell id="gtYnEdTjVLz-L2qjGS6A-1746" value="0" style="text;html=1;strokeColor=none;fillColor=none;align=center;verticalAlign=middle;whiteSpace=wrap;rounded=0;" vertex="1" parent="1">
          <mxGeometry x="105" y="1755" width="10" height="10" as="geometry" />
        </mxCell>
        <mxCell id="gtYnEdTjVLz-L2qjGS6A-1747" value="0" style="text;html=1;strokeColor=none;fillColor=none;align=center;verticalAlign=middle;whiteSpace=wrap;rounded=0;" vertex="1" parent="1">
          <mxGeometry x="145" y="1875" width="10" height="10" as="geometry" />
        </mxCell>
        <mxCell id="gtYnEdTjVLz-L2qjGS6A-1748" value="0" style="text;html=1;strokeColor=none;fillColor=none;align=center;verticalAlign=middle;whiteSpace=wrap;rounded=0;" vertex="1" parent="1">
          <mxGeometry x="685" y="1755" width="10" height="10" as="geometry" />
        </mxCell>
        <mxCell id="gtYnEdTjVLz-L2qjGS6A-1749" value="2" style="text;html=1;strokeColor=none;fillColor=none;align=center;verticalAlign=middle;whiteSpace=wrap;rounded=0;" vertex="1" parent="1">
          <mxGeometry x="730" y="1735" width="10" height="10" as="geometry" />
        </mxCell>
        <mxCell id="gtYnEdTjVLz-L2qjGS6A-1750" value="2" style="text;html=1;strokeColor=none;fillColor=none;align=center;verticalAlign=middle;whiteSpace=wrap;rounded=0;" vertex="1" parent="1">
          <mxGeometry x="100" y="1895" width="10" height="10" as="geometry" />
        </mxCell>
        <mxCell id="gtYnEdTjVLz-L2qjGS6A-1751" value="2" style="text;html=1;strokeColor=none;fillColor=none;align=center;verticalAlign=middle;whiteSpace=wrap;rounded=0;" vertex="1" parent="1">
          <mxGeometry x="150" y="1735" width="10" height="10" as="geometry" />
        </mxCell>
        <mxCell id="gtYnEdTjVLz-L2qjGS6A-1752" value="" style="endArrow=none;html=1;rounded=0;" edge="1" parent="1">
          <mxGeometry width="50" height="50" relative="1" as="geometry">
            <mxPoint x="200" y="1730" as="sourcePoint" />
            <mxPoint x="200" y="1710" as="targetPoint" />
          </mxGeometry>
        </mxCell>
        <mxCell id="gtYnEdTjVLz-L2qjGS6A-1757" value="" style="curved=1;endArrow=none;html=1;rounded=0;strokeColor=#FF0000;strokeWidth=2;endFill=0;" edge="1" parent="1">
          <mxGeometry width="50" height="50" relative="1" as="geometry">
            <mxPoint x="230" y="1840" as="sourcePoint" />
            <mxPoint x="470" y="1800" as="targetPoint" />
            <Array as="points">
              <mxPoint x="300" y="1920" />
              <mxPoint x="380" y="1920" />
            </Array>
          </mxGeometry>
        </mxCell>
        <mxCell id="gtYnEdTjVLz-L2qjGS6A-1758" value="" style="curved=1;endArrow=none;html=1;rounded=0;strokeColor=#00AB00;strokeWidth=2;endFill=0;" edge="1" parent="1">
          <mxGeometry width="50" height="50" relative="1" as="geometry">
            <mxPoint x="610" y="1840" as="sourcePoint" />
            <mxPoint x="370" y="1800" as="targetPoint" />
            <Array as="points">
              <mxPoint x="540" y="1920" />
              <mxPoint x="460" y="1920" />
            </Array>
          </mxGeometry>
        </mxCell>
        <mxCell id="gtYnEdTjVLz-L2qjGS6A-1759" value="" style="curved=1;endArrow=classic;html=1;rounded=0;strokeColor=#00AB00;strokeWidth=2;" edge="1" parent="1">
          <mxGeometry width="50" height="50" relative="1" as="geometry">
            <mxPoint x="370" y="1800" as="sourcePoint" />
            <mxPoint x="160" y="1880" as="targetPoint" />
            <Array as="points">
              <mxPoint x="300" y="1720" />
              <mxPoint x="220" y="1720" />
            </Array>
          </mxGeometry>
        </mxCell>
        <mxCell id="gtYnEdTjVLz-L2qjGS6A-1760" value="" style="curved=1;endArrow=classic;html=1;rounded=0;strokeColor=#FF0000;strokeWidth=2;" edge="1" parent="1">
          <mxGeometry width="50" height="50" relative="1" as="geometry">
            <mxPoint x="470" y="1800" as="sourcePoint" />
            <mxPoint x="680" y="1880" as="targetPoint" />
            <Array as="points">
              <mxPoint x="560" y="1720" />
              <mxPoint x="640" y="1720" />
            </Array>
          </mxGeometry>
        </mxCell>
        <mxCell id="gtYnEdTjVLz-L2qjGS6A-1761" value="" style="rounded=1;whiteSpace=wrap;html=1;dashed=1;fillColor=none;fillStyle=dashed;strokeColor=#FF0000;strokeWidth=2;opacity=75;" vertex="1" parent="1">
          <mxGeometry x="40" y="1820" width="140" height="120" as="geometry" />
        </mxCell>
        <mxCell id="gtYnEdTjVLz-L2qjGS6A-1767" value="" style="triangle;whiteSpace=wrap;html=1;rotation=-180;" vertex="1" parent="1">
          <mxGeometry x="680" y="1840" width="60" height="80" as="geometry" />
        </mxCell>
        <mxCell id="gtYnEdTjVLz-L2qjGS6A-1768" value="" style="endArrow=none;html=1;rounded=0;exitX=0;exitY=0.75;exitDx=0;exitDy=0;" edge="1" parent="1" source="gtYnEdTjVLz-L2qjGS6A-1767">
          <mxGeometry width="50" height="50" relative="1" as="geometry">
            <mxPoint x="820" y="2140" as="sourcePoint" />
            <mxPoint x="780" y="1860" as="targetPoint" />
          </mxGeometry>
        </mxCell>
        <mxCell id="gtYnEdTjVLz-L2qjGS6A-1769" value="" style="endArrow=none;html=1;rounded=0;exitX=0;exitY=0.25;exitDx=0;exitDy=0;" edge="1" parent="1" source="gtYnEdTjVLz-L2qjGS6A-1767">
          <mxGeometry width="50" height="50" relative="1" as="geometry">
            <mxPoint x="750" y="1880" as="sourcePoint" />
            <mxPoint x="780" y="1900" as="targetPoint" />
          </mxGeometry>
        </mxCell>
        <mxCell id="gtYnEdTjVLz-L2qjGS6A-1770" value="&lt;font style=&quot;font-size: 20px;&quot;&gt;W&lt;br&gt;&lt;/font&gt;" style="text;html=1;strokeColor=none;fillColor=none;align=center;verticalAlign=middle;whiteSpace=wrap;rounded=0;" vertex="1" parent="1">
          <mxGeometry x="705" y="1870" width="20" height="20" as="geometry" />
        </mxCell>
        <mxCell id="gtYnEdTjVLz-L2qjGS6A-1771" value="" style="endArrow=none;html=1;rounded=0;" edge="1" parent="1">
          <mxGeometry width="50" height="50" relative="1" as="geometry">
            <mxPoint x="780" y="1870" as="sourcePoint" />
            <mxPoint x="780" y="1850" as="targetPoint" />
          </mxGeometry>
        </mxCell>
        <mxCell id="gtYnEdTjVLz-L2qjGS6A-1772" value="" style="endArrow=none;html=1;rounded=0;" edge="1" parent="1">
          <mxGeometry width="50" height="50" relative="1" as="geometry">
            <mxPoint x="780" y="1910" as="sourcePoint" />
            <mxPoint x="780" y="1890" as="targetPoint" />
          </mxGeometry>
        </mxCell>
        <mxCell id="gtYnEdTjVLz-L2qjGS6A-1773" value="1&lt;br&gt;" style="text;html=1;strokeColor=none;fillColor=none;align=center;verticalAlign=middle;whiteSpace=wrap;rounded=0;" vertex="1" parent="1">
          <mxGeometry x="730" y="1895" width="10" height="10" as="geometry" />
        </mxCell>
        <mxCell id="gtYnEdTjVLz-L2qjGS6A-1774" value="0" style="text;html=1;strokeColor=none;fillColor=none;align=center;verticalAlign=middle;whiteSpace=wrap;rounded=0;" vertex="1" parent="1">
          <mxGeometry x="685" y="1875" width="10" height="10" as="geometry" />
        </mxCell>
        <mxCell id="gtYnEdTjVLz-L2qjGS6A-1775" value="2" style="text;html=1;strokeColor=none;fillColor=none;align=center;verticalAlign=middle;whiteSpace=wrap;rounded=0;" vertex="1" parent="1">
          <mxGeometry x="730" y="1855" width="10" height="10" as="geometry" />
        </mxCell>
        <mxCell id="gtYnEdTjVLz-L2qjGS6A-1776" value="" style="rounded=1;whiteSpace=wrap;html=1;dashed=1;fillColor=none;fillStyle=dashed;strokeColor=#00AB00;strokeWidth=2;opacity=75;" vertex="1" parent="1">
          <mxGeometry x="660" y="1820" width="140" height="120" as="geometry" />
        </mxCell>
        <mxCell id="gtYnEdTjVLz-L2qjGS6A-1779" value="" style="endArrow=none;html=1;rounded=0;" edge="1" parent="1">
          <mxGeometry width="50" height="50" relative="1" as="geometry">
            <mxPoint x="680" y="2080" as="sourcePoint" />
            <mxPoint x="160" y="2100" as="targetPoint" />
          </mxGeometry>
        </mxCell>
        <mxCell id="gtYnEdTjVLz-L2qjGS6A-1782" value="" style="triangle;whiteSpace=wrap;html=1;rotation=-180;" vertex="1" parent="1">
          <mxGeometry x="100" y="2040" width="60" height="80" as="geometry" />
        </mxCell>
        <mxCell id="gtYnEdTjVLz-L2qjGS6A-1783" value="" style="endArrow=none;html=1;rounded=0;exitX=1;exitY=0.5;exitDx=0;exitDy=0;" edge="1" parent="1" source="gtYnEdTjVLz-L2qjGS6A-1782">
          <mxGeometry width="50" height="50" relative="1" as="geometry">
            <mxPoint x="790" y="2130" as="sourcePoint" />
            <mxPoint x="60" y="2080" as="targetPoint" />
          </mxGeometry>
        </mxCell>
        <mxCell id="gtYnEdTjVLz-L2qjGS6A-1784" value="" style="triangle;whiteSpace=wrap;html=1;" vertex="1" parent="1">
          <mxGeometry x="100" y="2160" width="60" height="80" as="geometry" />
        </mxCell>
        <mxCell id="gtYnEdTjVLz-L2qjGS6A-1785" value="" style="endArrow=none;html=1;rounded=0;exitX=1;exitY=0.5;exitDx=0;exitDy=0;" edge="1" parent="1">
          <mxGeometry width="50" height="50" relative="1" as="geometry">
            <mxPoint x="100" y="2180" as="sourcePoint" />
            <mxPoint x="60" y="2180" as="targetPoint" />
          </mxGeometry>
        </mxCell>
        <mxCell id="gtYnEdTjVLz-L2qjGS6A-1786" value="" style="endArrow=none;html=1;rounded=0;exitX=1;exitY=0.5;exitDx=0;exitDy=0;" edge="1" parent="1">
          <mxGeometry width="50" height="50" relative="1" as="geometry">
            <mxPoint x="100" y="2220" as="sourcePoint" />
            <mxPoint x="60" y="2220" as="targetPoint" />
          </mxGeometry>
        </mxCell>
        <mxCell id="gtYnEdTjVLz-L2qjGS6A-1787" value="" style="triangle;whiteSpace=wrap;html=1;rotation=-180;" vertex="1" parent="1">
          <mxGeometry x="680" y="2040" width="60" height="80" as="geometry" />
        </mxCell>
        <mxCell id="gtYnEdTjVLz-L2qjGS6A-1788" value="" style="endArrow=none;html=1;rounded=0;exitX=0;exitY=0.75;exitDx=0;exitDy=0;" edge="1" parent="1" source="gtYnEdTjVLz-L2qjGS6A-1787">
          <mxGeometry width="50" height="50" relative="1" as="geometry">
            <mxPoint x="820" y="2340" as="sourcePoint" />
            <mxPoint x="780" y="2060" as="targetPoint" />
          </mxGeometry>
        </mxCell>
        <mxCell id="gtYnEdTjVLz-L2qjGS6A-1789" value="" style="endArrow=none;html=1;rounded=0;exitX=0;exitY=0.25;exitDx=0;exitDy=0;" edge="1" parent="1" source="gtYnEdTjVLz-L2qjGS6A-1787">
          <mxGeometry width="50" height="50" relative="1" as="geometry">
            <mxPoint x="750" y="2080" as="sourcePoint" />
            <mxPoint x="780" y="2100" as="targetPoint" />
          </mxGeometry>
        </mxCell>
        <mxCell id="gtYnEdTjVLz-L2qjGS6A-1790" value="" style="endArrow=none;html=1;rounded=0;exitX=0;exitY=0.25;exitDx=0;exitDy=0;" edge="1" parent="1">
          <mxGeometry width="50" height="50" relative="1" as="geometry">
            <mxPoint x="160" y="2060" as="sourcePoint" />
            <mxPoint x="200" y="2040" as="targetPoint" />
          </mxGeometry>
        </mxCell>
        <mxCell id="gtYnEdTjVLz-L2qjGS6A-1791" value="&lt;font style=&quot;font-size: 20px;&quot;&gt;X&lt;/font&gt;" style="text;html=1;strokeColor=none;fillColor=none;align=center;verticalAlign=middle;whiteSpace=wrap;rounded=0;" vertex="1" parent="1">
          <mxGeometry x="125" y="2070" width="20" height="20" as="geometry" />
        </mxCell>
        <mxCell id="gtYnEdTjVLz-L2qjGS6A-1792" value="&lt;font style=&quot;font-size: 20px;&quot;&gt;Y&lt;/font&gt;" style="text;html=1;strokeColor=none;fillColor=none;align=center;verticalAlign=middle;whiteSpace=wrap;rounded=0;" vertex="1" parent="1">
          <mxGeometry x="115" y="2190" width="20" height="20" as="geometry" />
        </mxCell>
        <mxCell id="gtYnEdTjVLz-L2qjGS6A-1793" value="&lt;font style=&quot;font-size: 20px;&quot;&gt;Z&lt;/font&gt;" style="text;html=1;strokeColor=none;fillColor=none;align=center;verticalAlign=middle;whiteSpace=wrap;rounded=0;" vertex="1" parent="1">
          <mxGeometry x="705" y="2070" width="20" height="20" as="geometry" />
        </mxCell>
        <mxCell id="gtYnEdTjVLz-L2qjGS6A-1794" value="" style="endArrow=none;html=1;rounded=0;" edge="1" parent="1">
          <mxGeometry width="50" height="50" relative="1" as="geometry">
            <mxPoint x="60" y="2190" as="sourcePoint" />
            <mxPoint x="60" y="2170" as="targetPoint" />
          </mxGeometry>
        </mxCell>
        <mxCell id="gtYnEdTjVLz-L2qjGS6A-1796" value="" style="endArrow=none;html=1;rounded=0;" edge="1" parent="1">
          <mxGeometry width="50" height="50" relative="1" as="geometry">
            <mxPoint x="780" y="2070" as="sourcePoint" />
            <mxPoint x="780" y="2050" as="targetPoint" />
          </mxGeometry>
        </mxCell>
        <mxCell id="gtYnEdTjVLz-L2qjGS6A-1797" value="" style="endArrow=none;html=1;rounded=0;" edge="1" parent="1">
          <mxGeometry width="50" height="50" relative="1" as="geometry">
            <mxPoint x="780" y="2110" as="sourcePoint" />
            <mxPoint x="780" y="2090" as="targetPoint" />
          </mxGeometry>
        </mxCell>
        <mxCell id="gtYnEdTjVLz-L2qjGS6A-1798" value="1&lt;br&gt;" style="text;html=1;strokeColor=none;fillColor=none;align=center;verticalAlign=middle;whiteSpace=wrap;rounded=0;" vertex="1" parent="1">
          <mxGeometry x="150" y="2095" width="10" height="10" as="geometry" />
        </mxCell>
        <mxCell id="gtYnEdTjVLz-L2qjGS6A-1799" value="1&lt;br&gt;" style="text;html=1;strokeColor=none;fillColor=none;align=center;verticalAlign=middle;whiteSpace=wrap;rounded=0;" vertex="1" parent="1">
          <mxGeometry x="100" y="2175" width="10" height="10" as="geometry" />
        </mxCell>
        <mxCell id="gtYnEdTjVLz-L2qjGS6A-1800" value="1&lt;br&gt;" style="text;html=1;strokeColor=none;fillColor=none;align=center;verticalAlign=middle;whiteSpace=wrap;rounded=0;" vertex="1" parent="1">
          <mxGeometry x="730" y="2095" width="10" height="10" as="geometry" />
        </mxCell>
        <mxCell id="gtYnEdTjVLz-L2qjGS6A-1801" value="0" style="text;html=1;strokeColor=none;fillColor=none;align=center;verticalAlign=middle;whiteSpace=wrap;rounded=0;" vertex="1" parent="1">
          <mxGeometry x="105" y="2075" width="10" height="10" as="geometry" />
        </mxCell>
        <mxCell id="gtYnEdTjVLz-L2qjGS6A-1802" value="0" style="text;html=1;strokeColor=none;fillColor=none;align=center;verticalAlign=middle;whiteSpace=wrap;rounded=0;" vertex="1" parent="1">
          <mxGeometry x="145" y="2195" width="10" height="10" as="geometry" />
        </mxCell>
        <mxCell id="gtYnEdTjVLz-L2qjGS6A-1803" value="0" style="text;html=1;strokeColor=none;fillColor=none;align=center;verticalAlign=middle;whiteSpace=wrap;rounded=0;" vertex="1" parent="1">
          <mxGeometry x="685" y="2075" width="10" height="10" as="geometry" />
        </mxCell>
        <mxCell id="gtYnEdTjVLz-L2qjGS6A-1804" value="2" style="text;html=1;strokeColor=none;fillColor=none;align=center;verticalAlign=middle;whiteSpace=wrap;rounded=0;" vertex="1" parent="1">
          <mxGeometry x="730" y="2055" width="10" height="10" as="geometry" />
        </mxCell>
        <mxCell id="gtYnEdTjVLz-L2qjGS6A-1805" value="2" style="text;html=1;strokeColor=none;fillColor=none;align=center;verticalAlign=middle;whiteSpace=wrap;rounded=0;" vertex="1" parent="1">
          <mxGeometry x="100" y="2215" width="10" height="10" as="geometry" />
        </mxCell>
        <mxCell id="gtYnEdTjVLz-L2qjGS6A-1806" value="2" style="text;html=1;strokeColor=none;fillColor=none;align=center;verticalAlign=middle;whiteSpace=wrap;rounded=0;" vertex="1" parent="1">
          <mxGeometry x="150" y="2055" width="10" height="10" as="geometry" />
        </mxCell>
        <mxCell id="gtYnEdTjVLz-L2qjGS6A-1807" value="" style="endArrow=none;html=1;rounded=0;" edge="1" parent="1">
          <mxGeometry width="50" height="50" relative="1" as="geometry">
            <mxPoint x="200" y="2050" as="sourcePoint" />
            <mxPoint x="200" y="2030" as="targetPoint" />
          </mxGeometry>
        </mxCell>
        <mxCell id="gtYnEdTjVLz-L2qjGS6A-1813" value="" style="triangle;whiteSpace=wrap;html=1;rotation=-180;" vertex="1" parent="1">
          <mxGeometry x="680" y="2160" width="60" height="80" as="geometry" />
        </mxCell>
        <mxCell id="gtYnEdTjVLz-L2qjGS6A-1814" value="" style="endArrow=none;html=1;rounded=0;exitX=0;exitY=0.75;exitDx=0;exitDy=0;" edge="1" parent="1" source="gtYnEdTjVLz-L2qjGS6A-1813">
          <mxGeometry width="50" height="50" relative="1" as="geometry">
            <mxPoint x="820" y="2460" as="sourcePoint" />
            <mxPoint x="780" y="2180" as="targetPoint" />
          </mxGeometry>
        </mxCell>
        <mxCell id="gtYnEdTjVLz-L2qjGS6A-1815" value="" style="endArrow=none;html=1;rounded=0;exitX=0;exitY=0.25;exitDx=0;exitDy=0;" edge="1" parent="1" source="gtYnEdTjVLz-L2qjGS6A-1813">
          <mxGeometry width="50" height="50" relative="1" as="geometry">
            <mxPoint x="750" y="2200" as="sourcePoint" />
            <mxPoint x="780" y="2220" as="targetPoint" />
          </mxGeometry>
        </mxCell>
        <mxCell id="gtYnEdTjVLz-L2qjGS6A-1816" value="&lt;font style=&quot;font-size: 20px;&quot;&gt;W&lt;br&gt;&lt;/font&gt;" style="text;html=1;strokeColor=none;fillColor=none;align=center;verticalAlign=middle;whiteSpace=wrap;rounded=0;" vertex="1" parent="1">
          <mxGeometry x="705" y="2190" width="20" height="20" as="geometry" />
        </mxCell>
        <mxCell id="gtYnEdTjVLz-L2qjGS6A-1817" value="" style="endArrow=none;html=1;rounded=0;" edge="1" parent="1">
          <mxGeometry width="50" height="50" relative="1" as="geometry">
            <mxPoint x="780" y="2190" as="sourcePoint" />
            <mxPoint x="780" y="2170" as="targetPoint" />
          </mxGeometry>
        </mxCell>
        <mxCell id="gtYnEdTjVLz-L2qjGS6A-1818" value="" style="endArrow=none;html=1;rounded=0;" edge="1" parent="1">
          <mxGeometry width="50" height="50" relative="1" as="geometry">
            <mxPoint x="780" y="2230" as="sourcePoint" />
            <mxPoint x="780" y="2210" as="targetPoint" />
          </mxGeometry>
        </mxCell>
        <mxCell id="gtYnEdTjVLz-L2qjGS6A-1819" value="1&lt;br&gt;" style="text;html=1;strokeColor=none;fillColor=none;align=center;verticalAlign=middle;whiteSpace=wrap;rounded=0;" vertex="1" parent="1">
          <mxGeometry x="730" y="2215" width="10" height="10" as="geometry" />
        </mxCell>
        <mxCell id="gtYnEdTjVLz-L2qjGS6A-1820" value="0" style="text;html=1;strokeColor=none;fillColor=none;align=center;verticalAlign=middle;whiteSpace=wrap;rounded=0;" vertex="1" parent="1">
          <mxGeometry x="685" y="2195" width="10" height="10" as="geometry" />
        </mxCell>
        <mxCell id="gtYnEdTjVLz-L2qjGS6A-1821" value="2" style="text;html=1;strokeColor=none;fillColor=none;align=center;verticalAlign=middle;whiteSpace=wrap;rounded=0;" vertex="1" parent="1">
          <mxGeometry x="730" y="2175" width="10" height="10" as="geometry" />
        </mxCell>
        <mxCell id="gtYnEdTjVLz-L2qjGS6A-1823" value="" style="endArrow=none;html=1;rounded=0;exitX=1;exitY=0.5;exitDx=0;exitDy=0;entryX=1;entryY=0.5;entryDx=0;entryDy=0;" edge="1" parent="1" source="gtYnEdTjVLz-L2qjGS6A-1784" target="gtYnEdTjVLz-L2qjGS6A-1813">
          <mxGeometry width="50" height="50" relative="1" as="geometry">
            <mxPoint x="290" y="2090" as="sourcePoint" />
            <mxPoint x="675" y="2200" as="targetPoint" />
          </mxGeometry>
        </mxCell>
        <mxCell id="gtYnEdTjVLz-L2qjGS6A-1871" value="" style="endArrow=none;html=1;rounded=0;" edge="1" parent="1">
          <mxGeometry width="50" height="50" relative="1" as="geometry">
            <mxPoint x="60" y="2230" as="sourcePoint" />
            <mxPoint x="60" y="2210" as="targetPoint" />
          </mxGeometry>
        </mxCell>
        <mxCell id="gtYnEdTjVLz-L2qjGS6A-1872" value="" style="rounded=1;whiteSpace=wrap;html=1;dashed=1;fillColor=none;fillStyle=dashed;strokeColor=#FF99CC;strokeWidth=2;opacity=75;" vertex="1" parent="1">
          <mxGeometry x="40" y="2140" width="760" height="120" as="geometry" />
        </mxCell>
        <mxCell id="gtYnEdTjVLz-L2qjGS6A-1873" value="&lt;font style=&quot;font-size: 16px;&quot;&gt;&lt;b&gt;Image 1.&lt;/b&gt; Threads &lt;font color=&quot;#ff0000&quot;&gt;R&lt;/font&gt; and &lt;font color=&quot;#00ab00&quot;&gt;G&lt;/font&gt;&amp;nbsp;both atomically take a redex.&lt;br&gt;They now implicitly own the active pairs &lt;font color=&quot;#ff0000&quot;&gt;&lt;i&gt;A-B&lt;/i&gt;&lt;/font&gt; and &lt;font color=&quot;#00ab00&quot;&gt;&lt;i&gt;C-D&lt;/i&gt;&lt;/font&gt;.&lt;/font&gt;" style="text;html=1;strokeColor=none;fillColor=none;align=center;verticalAlign=middle;whiteSpace=wrap;rounded=0;" vertex="1" parent="1">
          <mxGeometry x="60" y="80" width="720" height="40" as="geometry" />
        </mxCell>
        <mxCell id="gtYnEdTjVLz-L2qjGS6A-1874" value="&lt;span style=&quot;font-size: 16px;&quot;&gt;&lt;b&gt;Image 2.&lt;/b&gt; Threads &lt;font color=&quot;#ff0000&quot;&gt;R&lt;/font&gt; and &lt;font color=&quot;#00ab00&quot;&gt;G&lt;/font&gt; swap their pairs by redirectors.&lt;br&gt;Their owned regions is expanded to surrounding main ports.&lt;br&gt;&lt;/span&gt;" style="text;html=1;strokeColor=none;fillColor=none;align=center;verticalAlign=middle;whiteSpace=wrap;rounded=0;" vertex="1" parent="1">
          <mxGeometry x="60" y="360" width="720" height="40" as="geometry" />
        </mxCell>
        <mxCell id="gtYnEdTjVLz-L2qjGS6A-1875" value="&lt;span style=&quot;font-size: 16px;&quot;&gt;&lt;b&gt;Image 3.&lt;/b&gt; Thread&amp;nbsp;&lt;font color=&quot;#00ab00&quot;&gt;G&lt;/font&gt;&amp;nbsp;calls&amp;nbsp;&lt;i style=&quot;color: rgb(0, 171, 0);&quot;&gt;link(Z0)&lt;/i&gt;.&lt;br&gt;This clears all redirectors towards &lt;i&gt;X1&lt;/i&gt;.&lt;br&gt;&lt;/span&gt;" style="text;html=1;strokeColor=none;fillColor=none;align=center;verticalAlign=middle;whiteSpace=wrap;rounded=0;" vertex="1" parent="1">
          <mxGeometry x="60" y="700" width="720" height="40" as="geometry" />
        </mxCell>
        <mxCell id="gtYnEdTjVLz-L2qjGS6A-1877" value="&lt;span style=&quot;font-size: 16px;&quot;&gt;&lt;b&gt;Image 4.&lt;/b&gt; Thread&amp;nbsp;&lt;font color=&quot;#00ab00&quot;&gt;G&lt;/font&gt;&amp;nbsp;attempts to move&amp;nbsp;&lt;i&gt;&lt;font color=&quot;#00ab00&quot;&gt;Z0&lt;/font&gt;&lt;/i&gt; to &lt;i&gt;X1&lt;/i&gt; with a compare-exchange.&lt;br&gt;Once successful, it inherits the backwards redirectors &lt;i&gt;&lt;font color=&quot;#00ab00&quot;&gt;A1&lt;/font&gt;&lt;/i&gt; and &lt;i&gt;&lt;font color=&quot;#00ab00&quot;&gt;C2&lt;/font&gt;&lt;/i&gt;&lt;i&gt;.&lt;/i&gt;&lt;br&gt;&lt;/span&gt;" style="text;html=1;strokeColor=none;fillColor=none;align=center;verticalAlign=middle;whiteSpace=wrap;rounded=0;" vertex="1" parent="1">
          <mxGeometry x="60" y="1020" width="720" height="40" as="geometry" />
        </mxCell>
        <mxCell id="gtYnEdTjVLz-L2qjGS6A-1879" value="&lt;span style=&quot;font-size: 16px;&quot;&gt;&lt;b&gt;Image 5.&amp;nbsp;&lt;/b&gt;Thread&amp;nbsp;&lt;font color=&quot;#00ab00&quot;&gt;G&lt;/font&gt;&amp;nbsp;clears the backwards&amp;nbsp;redirectors it inherited.&lt;br&gt;&lt;/span&gt;" style="text;html=1;strokeColor=none;fillColor=none;align=center;verticalAlign=middle;whiteSpace=wrap;rounded=0;" vertex="1" parent="1">
          <mxGeometry x="60" y="1340" width="720" height="40" as="geometry" />
        </mxCell>
        <mxCell id="gtYnEdTjVLz-L2qjGS6A-1881" value="&lt;span style=&quot;font-size: 16px;&quot;&gt;&lt;b&gt;Image 6.&lt;/b&gt;&amp;nbsp;Thread&amp;nbsp;&lt;font color=&quot;#00ab00&quot;&gt;G&lt;/font&gt;&amp;nbsp;calls&amp;nbsp;&lt;font color=&quot;#00ab00&quot;&gt;&lt;i&gt;link(W0)&lt;/i&gt;&lt;/font&gt;. Thread &lt;font color=&quot;#ff0000&quot;&gt;R&lt;/font&gt; calls&amp;nbsp;&lt;font color=&quot;#ff0000&quot;&gt;&lt;i&gt;link(Y0)&lt;/i&gt;&lt;/font&gt;.&lt;br&gt;They clear the redirectors, and reach each-other&#39;s ports.&lt;br&gt;&lt;/span&gt;" style="text;html=1;strokeColor=none;fillColor=none;align=center;verticalAlign=middle;whiteSpace=wrap;rounded=0;" vertex="1" parent="1">
          <mxGeometry x="40" y="1660" width="720" height="40" as="geometry" />
        </mxCell>
        <mxCell id="gtYnEdTjVLz-L2qjGS6A-1882" value="&lt;span style=&quot;font-size: 16px;&quot;&gt;&lt;b&gt;Image 7.&lt;/b&gt;&amp;nbsp;Threads&amp;nbsp;&lt;font color=&quot;#00ab00&quot;&gt;G&lt;/font&gt;&amp;nbsp;and&amp;nbsp;&lt;font color=&quot;#ff0000&quot;&gt;R&lt;/font&gt;&amp;nbsp;form a new active pair, &lt;font color=&quot;#ff99cc&quot;&gt;&lt;i&gt;Y-W&lt;/i&gt;&lt;/font&gt;, allowing a thread&amp;nbsp;&lt;font color=&quot;#ff99cc&quot;&gt;P&lt;/font&gt;&amp;nbsp;to reduce it.&lt;br&gt;&lt;/span&gt;" style="text;html=1;strokeColor=none;fillColor=none;align=center;verticalAlign=middle;whiteSpace=wrap;rounded=0;" vertex="1" parent="1">
          <mxGeometry x="40" y="1980" width="720" height="40" as="geometry" />
        </mxCell>
        <mxCell id="gtYnEdTjVLz-L2qjGS6A-1883" value="" style="endArrow=none;html=1;rounded=0;exitX=0;exitY=0.25;exitDx=0;exitDy=0;dashed=1;dashPattern=1 4;" edge="1" parent="1">
          <mxGeometry width="50" height="50" relative="1" as="geometry">
            <mxPoint x="220" y="1160" as="sourcePoint" />
            <mxPoint x="160" y="1140" as="targetPoint" />
          </mxGeometry>
        </mxCell>
        <mxCell id="gtYnEdTjVLz-L2qjGS6A-1885" value="&lt;font style=&quot;font-size: 20px;&quot;&gt;Lock-Free Evaluator&lt;/font&gt;" style="text;html=1;strokeColor=none;fillColor=none;align=center;verticalAlign=middle;whiteSpace=wrap;rounded=0;" vertex="1" parent="1">
          <mxGeometry x="45" y="25" width="740" height="40" as="geometry" />
        </mxCell>
      </root>
    </mxGraphModel>
  </diagram>
</mxfile>
